<svg aria-label="FLS" xmlns="http://www.w3.org/2000/svg" viewBox="0 0 72 72" fill="white"><path d="M21.2,34.5v5H8.7v9.9H0.1c0-1.8,0-22,0-22v-0.1c0-2.8,1.9-4.7,4.8-4.8h16.7v5H8.7v6.9L21.2,34.5L21.2,34.5z"></path><path d="M33.3,43.2V22.6h-8.6v26.8h8.6h12.6v-6.1H33.3z"></path><path d="M58,38.2c2.7,0.6,5.2,1.1,5.2,3.2c0,1.1-0.7,2.8-5.6,2.8c-2.9,0-5.4-0.7-8-1.6l-0.3-0.1v6.2c5.9,0.9,7.4,0.9,9.8,0.9  c4.6,0,12.8-1.8,12.8-9c0-5.8-4.9-6.9-9.2-7.8c-2.8-0.6-5.2-1-5.2-3.1c0-0.6,0.3-1.2,0.7-1.6c1.1-1,3-1.1,4.8-1.1  c2.4,0,4.9,0.4,7.2,1.1v-5c-2.7-0.5-5.5-0.8-8.1-0.8c-7.1,0-13.1,1.8-13.1,8C48.8,36.6,54.5,37.5,58,38.2z"></path></svg>