<?xml version="1.0" encoding="UTF-8"?>
<svg width="422px" height="89px" viewBox="0 0 422 89" version="1.1" xmlns="http://www.w3.org/2000/svg" xmlns:xlink="http://www.w3.org/1999/xlink">
    <!-- Generator: Sketch 48.1 (47250) - http://www.bohemiancoding.com/sketch -->
    <title>thyssenkrupp_logo_claim_d</title>
    <desc>Created with Sketch.</desc>
    <defs></defs>
    <g id="Header_Internet_D_L" stroke="none" stroke-width="1" fill="none" fill-rule="evenodd" transform="translate(-22.000000, -30.000000)">
        <g id="00_04-Header-Encasa_T" transform="translate(-1.000000, 0.000000)" fill="#FFFFFF">
            <g id="00_01_Header_T-INTERNET-ENCASA">
                <g transform="translate(0.500000, 0.000000)">
                    <g id="thyssenkrupp_logo_claim_d" transform="translate(1.000000, 0.000000)">
                        <g id="Logo" transform="translate(21.435644, 30.435644)">
                            <path d="M57.172495,0.273633663 C46.0649208,0.273633663 37.0134752,9.22113861 36.8334455,20.286505 C29.6497723,23.4311386 24.6161188,30.6041881 24.6161188,38.9343663 C24.6161188,50.1539208 33.7439406,59.2817426 44.9640693,59.2817426 C49.5411881,59.2817426 53.7694455,57.7616832 57.172495,55.2010693 C60.5758317,57.7616832 64.803802,59.2817426 69.3812079,59.2817426 C80.6010495,59.2817426 89.7288713,50.1539208 89.7288713,38.9343663 C89.7288713,30.6041881 84.695505,23.4311386 77.5118317,20.286505 C77.331802,9.22113861 68.2803564,0.273633663 57.172495,0.273633663 Z M65.2218614,37.0654455 C64.7518317,31.926703 62.3640693,27.3360891 58.7812772,24.0151584 C60.897703,22.5071584 63.3454752,21.4378911 65.9942376,20.9405842 C67.7922376,24.322099 69.4475347,28.4280396 70.9144752,32.7065446 C69.3286634,34.507703 67.3971485,35.9964653 65.2218614,37.0654455 L65.2218614,37.0654455 Z M57.172495,52.5692475 C53.6870396,49.4452871 51.403505,45.0088614 51.1051782,40.0446931 C53.0223366,40.6447921 55.0600891,40.9689604 57.172495,40.9689604 C59.284901,40.9689604 61.3229406,40.6447921 63.240099,40.0446931 C62.9414851,45.0088614 60.6579505,49.4452871 57.172495,52.5692475 L57.172495,52.5692475 Z M43.4305149,32.7062574 C44.8974554,28.4280396 46.5527525,24.3218119 48.3510396,20.940297 C50.999802,21.4378911 53.4475743,22.5068713 55.564,24.0151584 C51.9806337,27.3360891 49.5931584,31.926703 49.1225545,37.0651584 C46.9478416,35.9961782 45.0166139,34.5074158 43.4305149,32.7062574 L43.4305149,32.7062574 Z M41.9434752,30.7781881 C40.1782079,28.1397624 39.0799406,25.0201089 38.8910099,21.660703 C40.7926634,20.9899703 42.8355842,20.621297 44.9640693,20.621297 C45.382703,20.621297 45.7964554,20.6405347 46.208198,20.668099 C44.7590594,23.4687525 43.3363366,26.8379208 41.9434752,30.7781881 L41.9434752,30.7781881 Z M49.4019307,19.079703 C51.8011782,15.0845941 54.4246733,12.4823465 57.172495,12.4823465 C59.920604,12.4823465 62.5438119,15.0845941 64.9430594,19.079703 C62.0803861,19.7194257 59.4419604,20.9595347 57.172495,22.6670891 C54.9027426,20.9595347 52.264604,19.7194257 49.4019307,19.079703 L49.4019307,19.079703 Z M57.172495,38.9340792 C55.044297,38.9340792 53.0013762,38.5654059 51.0997228,37.8946733 C51.3805347,32.9017921 53.6703861,28.4383762 57.172495,25.299198 C60.674604,28.4383762 62.9644554,32.9017921 63.2455545,37.8949604 C61.343901,38.5654059 59.3006931,38.9340792 57.172495,38.9340792 L57.172495,38.9340792 Z M68.1370792,20.668099 C68.5485347,20.6405347 68.9625743,20.621297 69.3812079,20.621297 C71.5096931,20.621297 73.5523267,20.9899703 75.4542673,21.660703 C75.2653366,25.0201089 74.1673564,28.1400495 72.4015149,30.7784752 C71.0089406,26.8382079 69.5862178,23.4687525 68.1370792,20.668099 L68.1370792,20.668099 Z M57.172495,2.30851485 C66.8969703,2.30851485 74.8725446,9.92862376 75.449099,19.5106832 C73.5316535,18.9105842 71.4936139,18.5864158 69.3812079,18.5864158 C68.600505,18.5864158 67.831,18.6349406 67.0729802,18.7210792 C63.884703,13.2225644 60.5738218,10.4474653 57.172495,10.4474653 C53.7711683,10.4474653 50.4602871,13.2225644 47.272297,18.7210792 C46.5139901,18.6349406 45.7447723,18.5864158 44.9640693,18.5864158 C42.8516634,18.5864158 40.8136238,18.9105842 38.8964653,19.5106832 C39.4730198,9.92862376 47.4480198,2.30851485 57.172495,2.30851485 L57.172495,2.30851485 Z M26.651,38.9343663 C26.651,31.7234158 30.8416436,25.4749208 36.9141287,22.4902178 C37.2793564,26.479297 38.8011386,30.1364554 41.139802,33.1277624 C41.1027624,33.2388812 41.0657228,33.3459802 41.0289703,33.4576733 C38.103703,42.3417228 36.1492178,51.3136337 35.4756139,54.5923564 C30.1892871,51.3770891 26.651,45.5610099 26.651,38.9343663 L26.651,38.9343663 Z M44.9640693,57.2471485 C42.2469703,57.2471485 39.6688416,56.6479109 37.3476931,55.5815149 C38.3365644,50.5145545 40.2063465,42.5877921 42.6977624,34.9045149 C44.5043762,36.7349604 46.6541089,38.2237228 49.0418713,39.2688713 C49.1354752,45.0243663 51.6277525,50.2050297 55.564,53.8532871 C52.5698218,55.9866535 48.9123762,57.2471485 44.9640693,57.2471485 L44.9640693,57.2471485 Z M58.7809901,53.8532871 C62.7172376,50.2050297 65.2092277,45.0243663 65.3031188,39.2688713 C67.6905941,38.2237228 69.8406139,36.7349604 71.6469406,34.9045149 C74.1386436,42.5877921 76.0087129,50.5145545 76.997297,55.5815149 C74.6764356,56.6479109 72.0983069,57.2471485 69.3812079,57.2471485 C65.4326139,57.2471485 61.7748812,55.9866535 58.7809901,53.8532871 L58.7809901,53.8532871 Z M78.8693762,54.5923564 C78.1960594,51.3136337 76.2412871,42.3417228 73.3160198,33.4576733 C73.2792673,33.3459802 73.2422277,33.2388812 73.2051881,33.1277624 C75.5441386,30.1364554 77.0656337,26.479297 77.4308614,22.4902178 C83.5033465,25.4749208 87.6942772,31.7234158 87.6942772,38.9343663 C87.6942772,45.5610099 84.1559901,51.3770891 78.8693762,54.5923564 L78.8693762,54.5923564 Z" id="Fill-1"></path>
                            <path d="M108.799099,82.0697129 C108.509673,81.9439505 108.262743,81.7653564 108.058594,81.5336436 C107.854158,81.3022178 107.695663,81.0248515 107.583396,80.7006832 C107.471416,80.3773762 107.415139,80.0184653 107.415139,79.6233762 L107.415139,77.0291683 C107.415139,76.5933069 107.481465,76.2102772 107.614119,75.8800792 C107.747059,75.5498812 107.921921,75.2736634 108.140139,75.0525743 C108.358069,74.831198 108.611891,74.666099 108.90103,74.5569901 C109.190455,74.4484554 109.488208,74.393901 109.794861,74.393901 C110.121614,74.393901 110.426257,74.4536238 110.708792,74.572495 C110.991614,74.6916535 111.22304,74.875703 111.403644,75.1240693 C111.58396,75.3727228 111.725228,75.6945941 111.827733,76.089396 C111.902386,76.3822673 111.954931,76.7159109 111.985941,77.0900396 C112.016376,77.4647426 112.032168,77.8632772 112.032168,78.2853564 C112.032168,78.6121089 112.016376,78.9767624 111.985941,79.3781683 C111.954931,79.7804356 111.915881,80.1106337 111.868505,80.3687624 C111.752505,80.9616832 111.524525,81.4245347 111.18399,81.7584653 C110.843455,82.0918218 110.366822,82.2583564 109.753802,82.2583564 C109.406663,82.2583564 109.088525,82.1960495 108.799099,82.0697129 L108.799099,82.0697129 Z M107.415139,87.2032871 L107.415139,82.6979505 C107.571624,82.9018119 107.780941,83.1131386 108.043376,83.3313564 C108.305238,83.549 108.628545,83.7209901 109.013297,83.8470396 C109.39805,83.972802 109.852574,84.0359703 110.377158,84.0359703 C110.805842,84.0359703 111.24199,83.9644752 111.684455,83.8217723 C112.127208,83.678495 112.52201,83.4281188 112.869436,83.0706436 C113.216861,82.7131683 113.489059,82.2655347 113.686604,81.7277426 C113.842802,81.3122673 113.958802,80.8235743 114.033743,80.2616634 C114.108396,79.7000396 114.14601,79.0410792 114.14601,78.2853564 C114.14601,77.4343069 114.098347,76.6866238 114.003307,76.0431683 C113.907693,75.3997129 113.740871,74.8363663 113.502554,74.3528416 C112.917099,73.1954257 111.885446,72.6162871 110.407881,72.6162871 C109.678861,72.6162871 109.064693,72.7644455 108.563941,73.0607624 C108.063475,73.3570792 107.660059,73.7501584 107.353693,74.2402871 L107.302871,72.9436139 L105.361881,72.9436139 L105.361881,87.2032871 L107.415139,87.2032871 L107.415139,87.2032871 Z M98.2999505,82.0697129 C98.0108119,81.9439505 97.7641683,81.7653564 97.5600198,81.5336436 C97.355297,81.3022178 97.1973762,81.0248515 97.0845347,80.7006832 C96.9722673,80.3773762 96.9159901,80.0184653 96.9159901,79.6233762 L96.9159901,77.0291683 C96.9159901,76.5933069 96.982604,76.2102772 97.1152574,75.8800792 C97.2479109,75.5498812 97.4236337,75.2736634 97.6412772,75.0525743 C97.859495,74.831198 98.1127426,74.666099 98.4024554,74.5569901 C98.6918812,74.4484554 98.9899208,74.393901 99.2962871,74.393901 C99.6233267,74.393901 99.9276832,74.4536238 100.210505,74.572495 C100.49304,74.6916535 100.724465,74.875703 100.905356,75.1240693 C101.085386,75.3727228 101.226653,75.6945941 101.328871,76.089396 C101.403812,76.3822673 101.456644,76.7159109 101.487366,77.0900396 C101.517802,77.4647426 101.53302,77.8632772 101.53302,78.2853564 C101.53302,78.6121089 101.517802,78.9767624 101.487366,79.3781683 C101.456644,79.7804356 101.417307,80.1106337 101.369644,80.3687624 C101.253931,80.9616832 101.025663,81.4245347 100.685416,81.7584653 C100.344881,82.0918218 99.8682475,82.2583564 99.2555149,82.2583564 C98.9080891,82.2583564 98.5896634,82.1960495 98.2999505,82.0697129 L98.2999505,82.0697129 Z M96.9159901,87.2032871 L96.9159901,82.6979505 C97.0727624,82.9018119 97.2820792,83.1131386 97.5445149,83.3313564 C97.8066634,83.549 98.1302574,83.7209901 98.5147228,83.8470396 C98.8994752,83.972802 99.354,84.0359703 99.878297,84.0359703 C100.307554,84.0359703 100.743129,83.9644752 101.185881,83.8217723 C101.628347,83.678495 102.023436,83.4281188 102.370574,83.0706436 C102.718,82.7131683 102.990198,82.2655347 103.187743,81.7277426 C103.344515,81.3122673 103.460228,80.8235743 103.535168,80.2616634 C103.610109,79.7000396 103.647436,79.0410792 103.647436,78.2853564 C103.647436,77.4343069 103.599485,76.6866238 103.504158,76.0431683 C103.408832,75.3997129 103.242297,74.8363663 103.00398,74.3528416 C102.418238,73.1954257 101.386584,72.6162871 99.9090198,72.6162871 C99.1805743,72.6162871 98.5658317,72.7644455 98.0656535,73.0607624 C97.5651881,73.3570792 97.1617723,73.7501584 96.8551188,74.2402871 L96.8037228,72.9436139 L94.8633069,72.9436139 L94.8633069,87.2032871 L96.9159901,87.2032871 L96.9159901,87.2032871 Z M89.4664356,83.571396 C89.9941782,83.261297 90.4418119,82.8512772 90.8099109,82.3404752 L90.830297,83.6988812 L92.771,83.6988812 L92.771,72.9436139 L90.7177426,72.9436139 L90.7177426,79.2862871 C90.7177426,79.647495 90.6396436,80.0440198 90.4828713,80.4764356 C90.326099,80.9088515 90.0484455,81.2915941 89.6504851,81.6255248 C89.2522376,81.9588812 88.8008713,82.125703 88.2972475,82.125703 C87.6845149,82.125703 87.2279802,81.9709406 86.9282178,81.6611287 C86.6287426,81.3513168 86.4788614,80.8663564 86.4788614,80.2059604 L86.4788614,72.9436139 L84.4258911,72.9436139 L84.4258911,80.767297 C84.4258911,81.394099 84.5177723,81.9163861 84.7015347,82.3355941 C84.8855842,82.7542277 85.1256238,83.0898812 85.4219406,83.3414059 C85.7179703,83.593505 86.0516139,83.772099 86.4225842,83.8774752 C86.7935545,83.9831386 87.1665347,84.0359703 87.5412376,84.0359703 C88.2972475,84.0359703 88.9389802,83.8812079 89.4664356,83.571396 L89.4664356,83.571396 Z M79.676495,83.6988812 L79.676495,78.7447624 C79.676495,78.2956931 79.7342079,77.7748416 79.8502079,77.1822079 C79.9656337,76.5898614 80.2464455,76.0704455 80.6926436,75.6245347 C81.1385545,75.1783366 81.739802,74.9555248 82.4952376,74.9555248 C82.7476238,74.9555248 82.9345446,74.9693069 83.0574356,74.9960099 L83.0574356,72.9229406 L82.7918416,72.9229406 C82.0969901,72.9229406 81.4704752,73.1239307 80.912297,73.5256238 C80.3538317,73.9273168 79.9107921,74.4892277 79.5843267,75.2107822 L79.5639406,72.9436139 L77.6235248,72.9436139 L77.6235248,83.6988812 L79.676495,83.6988812 L79.676495,83.6988812 Z M69.7593564,83.6988812 L69.7593564,79.3882178 L71.1789208,77.9485545 L73.9982376,83.6988812 L76.3268515,83.6988812 L72.680604,76.4161485 L76.0919802,72.9436139 L73.651099,72.9436139 L69.7593564,76.9166139 L69.7593564,69.1428911 L67.7063861,69.1428911 L67.7063861,83.6988812 L69.7593564,83.6988812 L69.7593564,83.6988812 Z M59.0276337,83.6988812 L59.0276337,77.3556337 C59.0276337,76.9881089 59.1074554,76.5832574 59.2676733,76.140505 C59.427604,75.6980396 59.7052574,75.3132871 60.0997723,74.9859604 C60.4945743,74.6592079 60.9511089,74.4961188 61.468802,74.4961188 C62.0815347,74.4961188 62.5274455,74.652604 62.8065347,74.9658614 C63.0859109,75.2794059 63.2257426,75.7623564 63.2257426,76.4161485 L63.2257426,83.6988812 L65.279,83.6988812 L65.279,75.8746238 C65.279,75.2417921 65.1644356,74.6698317 64.9361683,74.1587426 C64.7081881,73.6482277 64.357604,73.2634752 63.8844158,73.0044851 C63.4112277,72.7457822 62.8579307,72.6162871 62.2245248,72.6162871 C61.462198,72.6162871 60.8150099,72.769901 60.2841089,73.0762673 C59.7526337,73.3826337 59.3035644,73.7912178 58.9357525,74.3017327 L58.9150792,72.9436139 L56.9746634,72.9436139 L56.9746634,83.6988812 L59.0276337,83.6988812 L59.0276337,83.6988812 Z M48.5939505,75.9004653 C48.7128218,75.4884356 48.8710297,75.1616832 49.0685743,74.9199208 C49.2661188,74.6784455 49.5009901,74.5078911 49.7737624,74.4088317 C50.0456733,74.3106337 50.3457228,74.2612475 50.6721881,74.2612475 C51.0196139,74.2612475 51.3653168,74.3290099 51.7090099,74.465396 C52.052703,74.6012079 52.3286337,74.9147525 52.5362277,75.4051683 C52.7441089,75.895297 52.8480495,76.5760792 52.8480495,77.447802 L48.3946832,77.447802 C48.4078911,76.8281782 48.474505,76.3122079 48.5939505,75.9004653 L48.5939505,75.9004653 Z M52.4546832,83.8008119 C52.9824257,83.6446139 53.4283366,83.4045743 53.7929901,83.0812673 C54.1570693,82.7576733 54.468604,82.3508119 54.7273069,81.8606832 L53.1033069,81.0231287 C53.0148713,81.1727228 52.8850891,81.3464356 52.715396,81.5436931 C52.5448416,81.7412376 52.3013564,81.9132277 51.9846535,82.0593762 C51.6682376,82.206099 51.3087525,82.2793168 50.9070594,82.2793168 C50.5326436,82.2793168 50.1903861,82.2316535 49.8808614,82.1360396 C49.5707624,82.0407129 49.3037327,81.8773366 49.0789109,81.6459109 C48.8540891,81.4144851 48.6803762,81.1043861 48.5580594,80.7164752 C48.4354554,80.3282772 48.3740099,79.8447525 48.3740099,79.2661881 L48.3740099,78.9695842 L54.8599604,78.9695842 L54.8599604,77.8463366 C54.8599604,77.3625248 54.8361287,76.8551683 54.7884653,76.3242673 C54.740802,75.7930792 54.6302574,75.297495 54.4565446,74.8383762 C54.2831188,74.378396 54.0261386,73.9715347 53.6853168,73.6177921 C53.3789505,73.3111386 52.994198,73.0676535 52.5313465,72.8873366 C52.0682079,72.7067327 51.4962475,72.6162871 50.8151782,72.6162871 C50.0798416,72.6162871 49.4567723,72.7101782 48.9459703,72.8973861 C48.4354554,73.0845941 48.006198,73.358802 47.6590594,73.7197228 C47.4003564,73.9784257 47.1672079,74.3137921 46.9593267,74.7255347 C46.7517327,75.1378515 46.5932376,75.672198 46.4844158,76.3294356 C46.3753069,76.9866733 46.3210396,77.7271782 46.3210396,78.5509505 C46.3210396,79.1840693 46.3552079,79.7548812 46.4229703,80.2616634 C46.4910198,80.7693069 46.6101782,81.2373267 46.7807327,81.666297 C47.0667129,82.4088119 47.5350198,82.989099 48.1853663,83.4077327 C48.8351386,83.8266535 49.6916436,84.0359703 50.7543069,84.0359703 C51.3601485,84.0359703 51.9272277,83.9575842 52.4546832,83.8008119 L52.4546832,83.8008119 Z M41.9035644,83.9288713 C42.2538614,83.8573762 42.5639604,83.7634851 42.8327129,83.6474851 C43.1017525,83.5323465 43.3334653,83.4045743 43.5275644,83.2647426 C43.7216634,83.1254851 43.8729802,82.9842178 43.981802,82.8412277 C44.1931287,82.5756337 44.363396,82.2879307 44.492604,81.9778317 C44.622099,81.6683069 44.686703,81.2778119 44.686703,80.8080693 C44.686703,80.4132673 44.642198,80.0761782 44.5537624,79.7973762 C44.4656139,79.5177129 44.363396,79.2828416 44.247396,79.0924752 C44.0840198,78.8469802 43.8491485,78.6006238 43.5427822,78.3519703 C43.2361287,78.1033168 42.6371782,77.842604 41.7450693,77.5704059 C41.2957129,77.4409109 40.8971782,77.311703 40.5503267,77.1822079 C40.2026139,77.053 39.9080198,76.9151782 39.6665446,76.7684554 C39.4247822,76.6220198 39.2424554,76.4623762 39.1198515,76.2883762 C38.9975347,76.1149505 38.9360891,75.9159703 38.9360891,75.6908614 C38.9360891,75.2280099 39.0822376,74.8774257 39.375396,74.6388218 C39.5522673,74.4823366 39.7670396,74.3732277 40.0188515,74.3117822 C40.2706634,74.2506238 40.5669802,74.219901 40.9075149,74.219901 C41.4114257,74.219901 41.8369505,74.3275743 42.1840891,74.5417723 C42.5315149,74.7562574 42.804,75.0884653 43.0012574,75.5375347 L44.6459307,74.7413267 C44.3530594,74.0260891 43.8867624,73.4934653 43.2464653,73.1425941 C42.6064554,72.7920099 41.8197228,72.6162871 40.8871287,72.6162871 C40.3628317,72.6162871 39.857198,72.6814653 39.3705149,72.8106733 C38.8835446,72.9398812 38.4746733,73.1308218 38.1444752,73.3826337 C37.8142772,73.6344455 37.5641881,73.9273168 37.3936337,74.2612475 C37.2440396,74.5268416 37.140099,74.8024851 37.0823861,75.0884653 C37.0243861,75.3744455 36.9953861,75.6365941 36.9953861,75.8746238 C36.9953861,76.1471089 37.0364455,76.435099 37.1179901,76.7380198 C37.2001089,77.0409406 37.3390792,77.3185941 37.5369109,77.5704059 C37.6931089,77.7679505 37.9182178,77.9741089 38.210802,78.1883069 C38.5036733,78.4027921 38.871198,78.5954554 39.3139505,78.7654356 L40.8871287,79.3477327 C41.1662178,79.4565545 41.4504752,79.5725545 41.7401881,79.6948713 C42.0293267,79.8174752 42.2590297,79.9825743 42.429297,80.1901683 C42.5995644,80.3983366 42.6848416,80.6754158 42.6848416,81.0231287 C42.6848416,81.2611584 42.6302871,81.4638713 42.5214653,81.6306931 C42.4123564,81.7975149 42.2659208,81.9321782 42.0821584,82.0341089 C41.898396,82.1360396 41.6836238,82.2092574 41.438703,82.2534752 C41.193495,82.2979802 40.9313465,82.319802 40.6522574,82.319802 C40.3458911,82.319802 40.0734059,82.2827624 39.8350891,82.2078218 C39.5967723,82.1325941 39.3822871,82.0289406 39.1913465,81.8962871 C39.0009802,81.7636337 38.8338713,81.6085842 38.6911683,81.4311386 C38.5478911,81.2542673 38.4218416,81.0601683 38.3130198,80.8491287 L36.6175248,81.6051386 C36.7539109,81.9660594 36.9408317,82.2928119 37.1794356,82.585396 C37.4174653,82.8782673 37.7037327,83.1303663 38.0373762,83.3414059 C38.384802,83.5524455 38.7709901,83.7209901 39.196802,83.8470396 C39.6223267,83.972802 40.1417426,84.0359703 40.7544752,84.0359703 C41.1693762,84.0359703 41.5526931,84.0003663 41.9035644,83.9288713 L41.9035644,83.9288713 Z M32.5121584,83.9288713 C32.8627426,83.8573762 33.1728416,83.7634851 33.4415941,83.6474851 C33.7106337,83.5323465 33.9420594,83.4045743 34.1361584,83.2647426 C34.3302574,83.1254851 34.4815743,82.9842178 34.5906832,82.8412277 C34.8017228,82.5756337 34.9719901,82.2879307 35.1014851,81.9778317 C35.2309802,81.6683069 35.2955842,81.2778119 35.2955842,80.8080693 C35.2955842,80.4132673 35.2510792,80.0761782 35.1626436,79.7973762 C35.0742079,79.5177129 34.9719901,79.2828416 34.8562772,79.0924752 C34.692901,78.8469802 34.4583168,78.6006238 34.1513762,78.3519703 C33.8450099,78.1033168 33.2460594,77.842604 32.3539505,77.5704059 C31.9045941,77.4409109 31.5060594,77.311703 31.1589208,77.1822079 C30.8117822,77.053 30.516901,76.9151782 30.2754257,76.7684554 C30.0336634,76.6220198 29.8513366,76.4623762 29.7290198,76.2883762 C29.6064158,76.1149505 29.5449703,75.9159703 29.5449703,75.6908614 C29.5449703,75.2280099 29.6914059,74.8774257 29.9842772,74.6388218 C30.1614356,74.4823366 30.3756337,74.3732277 30.6277327,74.3117822 C30.8795446,74.2506238 31.1758614,74.219901 31.5161089,74.219901 C32.0203069,74.219901 32.4458317,74.3275743 32.7929703,74.5417723 C33.140396,74.7562574 33.4125941,75.0884653 33.6101386,75.5375347 L35.2548119,74.7413267 C34.9619406,74.0260891 34.4953564,73.4934653 33.8556337,73.1425941 C33.2153366,72.7920099 32.4288911,72.6162871 31.4960099,72.6162871 C30.9717129,72.6162871 30.4657921,72.6814653 29.9791089,72.8106733 C29.4921386,72.9398812 29.0835545,73.1308218 28.7536436,73.3826337 C28.4228713,73.6344455 28.1727822,73.9273168 28.0025149,74.2612475 C27.8526337,74.5268416 27.7486931,74.8024851 27.6909802,75.0884653 C27.6332673,75.3744455 27.6045545,75.6365941 27.6045545,75.8746238 C27.6045545,76.1471089 27.6450396,76.435099 27.7265842,76.7380198 C27.808703,77.0409406 27.9479604,77.3185941 28.1457921,77.5704059 C28.3022772,77.7679505 28.5268119,77.9741089 28.8199703,78.1883069 C29.1125545,78.4027921 29.4803663,78.5954554 29.9228317,78.7654356 L31.4960099,79.3477327 C31.775099,79.4565545 32.0593564,79.5725545 32.3487822,79.6948713 C32.6382079,79.8174752 32.868198,79.9825743 33.0384653,80.1901683 C33.2084455,80.3983366 33.2937228,80.6754158 33.2937228,81.0231287 C33.2937228,81.2611584 33.2391683,81.4638713 33.1300594,81.6306931 C33.0209505,81.7975149 32.8750891,81.9321782 32.6907525,82.0341089 C32.5072772,82.1360396 32.292505,82.2092574 32.047297,82.2534752 C31.8023762,82.2979802 31.5399406,82.319802 31.2608515,82.319802 C30.9547723,82.319802 30.682,82.2827624 30.4439703,82.2078218 C30.2053663,82.1325941 29.9911683,82.0289406 29.8005149,81.8962871 C29.6095743,81.7636337 29.4427525,81.6085842 29.2997624,81.4311386 C29.1570594,81.2542673 29.0307228,81.0601683 28.921901,80.8491287 L27.2261188,81.6051386 C27.362505,81.9660594 27.5494257,82.2928119 27.7880297,82.585396 C28.0263465,82.8782673 28.3123267,83.1303663 28.6462574,83.3414059 C28.993396,83.5524455 29.3795842,83.7209901 29.805396,83.8470396 C30.2309208,83.972802 30.7503366,84.0359703 31.3630693,84.0359703 C31.7785446,84.0359703 32.1615743,84.0003663 32.5121584,83.9288713 L32.5121584,83.9288713 Z M19.9947822,87.2943069 C20.3829802,87.1857723 20.7608416,86.9233366 21.1283663,86.5081485 C21.4961782,86.0926733 21.8364257,85.476495 22.1499703,84.6593267 L26.7259406,72.9436139 L24.6830198,72.9436139 L21.8740396,80.3897228 L19.198,72.9436139 L17.1039703,72.9436139 L20.8119505,83.1984158 L20.3318713,84.2200198 C20.1885941,84.5947228 19.989901,84.9246337 19.7343564,85.210901 C19.4788119,85.4968812 19.1127228,85.6398713 18.6360891,85.6398713 C18.4661089,85.6398713 18.3058911,85.6260891 18.1560099,85.599099 L18.1560099,87.417198 C18.3400594,87.4444752 18.5815347,87.4579703 18.8815842,87.4579703 C19.2356139,87.4579703 19.6065842,87.4034158 19.9947822,87.2943069 L19.9947822,87.2943069 Z M9.78735644,83.6988812 L9.78735644,77.3556337 C9.78735644,76.9881089 9.86746535,76.5832574 10.0276832,76.140505 C10.1873267,75.6980396 10.4649802,75.3132871 10.8597822,74.9859604 C11.2545842,74.6592079 11.7111188,74.4961188 12.2288119,74.4961188 C12.8415446,74.4961188 13.2871683,74.652604 13.5665446,74.9658614 C13.8459208,75.2794059 13.9854653,75.7623564 13.9854653,76.4161485 L13.9854653,83.6988812 L16.0384356,83.6988812 L16.0384356,75.8746238 C16.0384356,75.2417921 15.9241584,74.6698317 15.6961782,74.1587426 C15.468198,73.6482277 15.1173267,73.2634752 14.6441386,73.0044851 C14.1709505,72.7457822 13.6179406,72.6162871 12.9845347,72.6162871 C12.2489109,72.6162871 11.6241188,72.7564059 11.1104455,73.0349208 C10.5959109,73.3145842 10.1551683,73.6958911 9.78735644,74.1794158 L9.78735644,69.1428911 L7.73438614,69.1428911 L7.73438614,83.6988812 L9.78735644,83.6988812 L9.78735644,83.6988812 Z M5.95993069,83.6991683 L5.95993069,82.0039604 C5.70122772,82.0306634 5.44252475,82.0444455 5.18382178,82.0444455 C4.86338614,82.0444455 4.6029604,82.0036733 4.40225743,81.9218416 C4.20126733,81.8400099 4.04277228,81.7174059 3.92734653,81.5543168 C3.81163366,81.3909406 3.73324752,81.1870792 3.69247525,80.9415842 C3.65170297,80.6966634 3.6310297,80.4106832 3.6310297,80.0836436 L3.6310297,74.5569901 L5.84766337,74.5569901 L5.84766337,72.9436139 L3.6310297,72.9436139 L3.6310297,69.1431782 L1.58839604,69.1431782 L1.58839604,72.9436139 L0.198980198,72.9436139 L0.198980198,74.5569901 L1.58839604,74.5569901 L1.58839604,80.1040297 C1.58839604,80.655604 1.63433663,81.1580792 1.72621782,81.6108812 C1.81781188,82.0636832 1.98520792,82.4481485 2.22668317,82.7648515 C2.46815842,83.0815545 2.80036634,83.3261881 3.22273267,83.499901 C3.64481188,83.6733267 4.1860495,83.7611881 4.84644554,83.7611881 C5.24124752,83.7611881 5.61279208,83.7402277 5.95993069,83.6991683 L5.95993069,83.6991683 Z" id="Fill-2"></path>
                        </g>
                        <path d="M440.406832,114.005317 L442.78799,114.005317 L442.78799,111.431495 L440.406832,111.431495 L440.406832,114.005317 Z M436.231693,114.005317 L436.231693,109.090822 C436.231693,108.645198 436.288832,108.128366 436.403683,107.540614 C436.518535,106.952861 436.797337,106.437752 437.239802,105.995287 C437.682267,105.553109 438.278347,105.331733 439.028327,105.331733 C439.278129,105.331733 439.463901,105.345228 439.585644,105.372218 L439.585644,103.315228 L439.322059,103.315228 C438.63295,103.315228 438.011317,103.514495 437.457733,103.91303 C436.903574,104.311851 436.464554,104.869168 436.140386,105.58498 L436.12,103.335614 L434.194802,103.335614 L434.194802,114.005317 L436.231693,114.005317 L436.231693,114.005317 Z M425.77705,106.268921 C425.895347,105.860337 426.052406,105.536168 426.248228,105.296129 C426.44405,105.056376 426.677198,104.887545 426.947386,104.789634 C427.217574,104.691723 427.51504,104.642624 427.839208,104.642624 C428.183762,104.642624 428.526594,104.710099 428.867703,104.845337 C429.208812,104.980574 429.482158,105.291248 429.688317,105.777644 C429.894475,106.263752 429.997554,106.939366 429.997554,107.804198 L425.579505,107.804198 C425.593,107.189455 425.658752,106.677792 425.77705,106.268921 L425.77705,106.268921 Z M429.607347,114.106673 C430.130782,113.951337 430.573248,113.713307 430.934743,113.392297 C431.29595,113.071574 431.605188,112.667871 431.861881,112.181475 L430.250802,111.350525 C430.162941,111.499257 430.034594,111.671535 429.865762,111.867356 C429.696931,112.063465 429.455455,112.233733 429.141337,112.37902 C428.827218,112.524307 428.470891,112.59695 428.072356,112.59695 C427.700525,112.59695 427.361139,112.549574 427.053911,112.455109 C426.746396,112.360644 426.481376,112.198416 426.258564,111.968713 C426.035465,111.73901 425.863188,111.431495 425.741733,111.046455 C425.61999,110.661416 425.559406,110.181911 425.559406,109.607653 L425.559406,109.313921 L431.993673,109.313921 L431.993673,108.199287 C431.993673,107.719782 431.969842,107.216446 431.922752,106.689564 C431.875376,106.162683 431.765693,105.671119 431.593416,105.215158 C431.421139,104.759198 431.166168,104.355495 430.828505,104.004337 C430.524436,103.700267 430.142554,103.458792 429.683436,103.279624 C429.223743,103.100743 428.656376,103.011158 427.98105,103.011158 C427.251455,103.011158 426.633267,103.104188 426.126772,103.28996 C425.61999,103.475733 425.194465,103.747644 424.849911,104.105693 C424.593218,104.362386 424.361792,104.695168 424.155921,105.103752 C423.949762,105.512337 423.792703,106.042663 423.684743,106.694446 C423.576495,107.346515 423.522515,108.08099 423.522515,108.898446 C423.522515,109.526683 423.556396,110.092614 423.623871,110.595663 C423.691347,111.099 423.809644,111.563287 423.978475,111.988812 C424.262158,112.725297 424.726733,113.30099 425.371911,113.716465 C426.016802,114.131941 426.866416,114.339822 427.920178,114.339822 C428.521426,114.339822 429.083911,114.26201 429.607347,114.106673 L429.607347,114.106673 Z M415.03901,114.005317 L415.03901,107.712891 C415.03901,107.34795 415.118257,106.946257 415.27704,106.50695 C415.435822,106.067931 415.711178,105.686337 416.102822,105.362168 C416.494752,105.037713 416.947267,104.875772 417.460653,104.875772 C418.068792,104.875772 418.51097,105.031109 418.78805,105.341782 C419.065129,105.652455 419.203525,106.132248 419.203525,106.780584 L419.203525,114.005317 L421.240416,114.005317 L421.240416,106.243653 C421.240416,105.615416 421.127,105.04805 420.900743,104.541267 C420.674485,104.034772 420.326485,103.653178 419.85703,103.396198 C419.387574,103.139505 418.838871,103.011158 418.210634,103.011158 C417.48104,103.011158 416.861129,103.149842 416.351188,103.426634 C415.84096,103.703713 415.403663,104.081861 415.03901,104.561653 L415.03901,99.0594059 L413.002406,99.0594059 L413.002406,114.005317 L415.03901,114.005317 L415.03901,114.005317 Z M411.449614,114.106673 L411.449614,112.424673 C411.192921,112.451663 410.936228,112.465158 410.679535,112.465158 C410.36197,112.465158 410.103554,112.424673 409.904287,112.343703 C409.70502,112.262446 409.54796,112.14099 409.433109,111.978762 C409.318257,111.816535 409.240733,111.614109 409.19996,111.370911 C409.159475,111.127713 409.139376,110.84403 409.139376,110.519574 L409.139376,104.936356 L411.338208,104.936356 L411.338208,103.335614 L409.139376,103.335614 L409.139376,100.599564 L407.112822,100.599564 L407.112822,103.335614 L405.734604,103.335614 L405.734604,104.936356 L407.112822,104.936356 L407.112822,110.53996 C407.112822,111.087228 407.158188,111.585396 407.249495,112.034465 C407.340802,112.483822 407.506188,112.865416 407.745941,113.179535 C407.985693,113.493653 408.31503,113.736851 408.73395,113.909129 C409.152871,114.081406 409.689802,114.167545 410.34503,114.167545 C410.736673,114.167545 411.105059,114.147158 411.449614,114.106673 L411.449614,114.106673 Z M398.441535,106.268921 C398.559832,105.860337 398.716891,105.536168 398.912713,105.296129 C399.108822,105.056376 399.341683,104.887545 399.612158,104.789634 C399.882059,104.691723 400.179525,104.642624 400.503693,104.642624 C400.848248,104.642624 401.191079,104.710099 401.532188,104.845337 C401.873297,104.980574 402.146931,105.291248 402.353089,105.777644 C402.55896,106.263752 402.66204,106.939366 402.66204,107.804198 L398.24399,107.804198 C398.257485,107.189455 398.323525,106.677792 398.441535,106.268921 L398.441535,106.268921 Z M402.271832,114.106673 C402.795267,113.951337 403.237733,113.713307 403.599228,113.392297 C403.960723,113.071574 404.269673,112.667871 404.526366,112.181475 L402.915287,111.350525 C402.827426,111.499257 402.699079,111.671535 402.530248,111.867356 C402.361416,112.063465 402.119941,112.233733 401.805822,112.37902 C401.491703,112.524307 401.135376,112.59695 400.736842,112.59695 C400.365297,112.59695 400.025624,112.549574 399.718396,112.455109 C399.410881,112.360644 399.145861,112.198416 398.92305,111.968713 C398.69995,111.73901 398.52796,111.431495 398.406218,111.046455 C398.284475,110.661416 398.223891,110.181911 398.223891,109.607653 L398.223891,109.313921 L404.658158,109.313921 L404.658158,108.199287 C404.658158,107.719782 404.634327,107.216446 404.587238,106.689564 C404.539861,106.162683 404.430178,105.671119 404.257901,105.215158 C404.085624,104.759198 403.830653,104.355495 403.49299,104.004337 C403.188921,103.700267 402.80704,103.458792 402.347921,103.279624 C401.888515,103.100743 401.320861,103.011158 400.645535,103.011158 C399.915941,103.011158 399.29804,103.104188 398.791257,103.28996 C398.284475,103.475733 397.85895,103.747644 397.514396,104.105693 C397.257703,104.362386 397.026277,104.695168 396.820406,105.103752 C396.614248,105.512337 396.457188,106.042663 396.349228,106.694446 C396.24098,107.346515 396.187,108.08099 396.187,108.898446 C396.187,109.526683 396.220881,110.092614 396.288356,110.595663 C396.355832,111.099 396.474129,111.563287 396.643248,111.988812 C396.926931,112.725297 397.391218,113.30099 398.036396,113.716465 C398.681287,114.131941 399.530901,114.339822 400.584663,114.339822 C401.185911,114.339822 401.748396,114.26201 402.271832,114.106673 L402.271832,114.106673 Z M388.11897,111.877406 C387.787911,111.580228 387.565099,111.154703 387.450248,110.600832 C387.39598,110.344139 387.352337,110.026574 387.318455,109.648139 C387.284574,109.26999 387.267921,108.888396 387.267921,108.503356 C387.267921,108.084436 387.283139,107.711168 387.313287,107.383554 C387.343723,107.055941 387.39598,106.74699 387.470347,106.456416 C387.531218,106.233604 387.622525,105.990406 387.74398,105.726822 C387.865723,105.463525 388.07504,105.23899 388.372218,105.052931 C388.669396,104.867158 389.040941,104.774416 389.486851,104.774416 C389.790921,104.774416 390.121693,104.843614 390.48003,104.98201 C390.837792,105.120693 391.157079,105.404376 391.437604,105.833347 C391.717554,106.262317 391.85796,106.780584 391.85796,107.388723 L391.85796,109.70901 C391.85796,110.107832 391.78704,110.507802 391.645198,110.909782 C391.503356,111.311762 391.243218,111.64799 390.865069,111.917891 C390.486634,112.188366 390.040723,112.323317 389.527337,112.323317 C388.919485,112.323317 388.449743,112.174871 388.11897,111.877406 L388.11897,111.877406 Z M391.650366,118.149733 C392.234386,117.980614 392.702406,117.713871 393.053564,117.349218 C393.303366,117.07903 393.504644,116.74797 393.656535,116.35604 C393.808426,115.964396 393.884515,115.373198 393.884515,114.58302 L393.884515,103.335614 L391.959317,103.335614 L391.918832,104.581752 C391.661851,104.102248 391.28198,103.720653 390.778931,103.436683 C390.275594,103.153 389.665733,103.011158 388.949921,103.011158 C388.193337,103.011158 387.558208,103.153 387.044822,103.436683 C386.531436,103.720653 386.129455,104.159673 385.839168,104.75403 C385.602574,105.220327 385.43202,105.753812 385.327505,106.355059 C385.222703,106.956307 385.170446,107.672406 385.170446,108.503356 C385.170446,109.239554 385.209208,109.879564 385.286733,110.423386 C385.364545,110.967208 385.477673,111.441832 385.626406,111.84697 C385.882812,112.54297 386.281347,113.08995 386.82201,113.488485 C387.362386,113.887307 388.058099,114.086287 388.909436,114.086287 C389.40904,114.086287 389.890554,114.010485 390.353119,113.858307 C390.81597,113.706416 391.317584,113.346644 391.85796,112.779277 L391.85796,114.420792 C391.85796,114.880198 391.827525,115.244851 391.766653,115.51504 C391.706069,115.785228 391.597822,116.00804 391.442485,116.183762 C391.233168,116.39997 390.969584,116.553871 390.652307,116.644891 C390.334455,116.736198 389.986743,116.781851 389.608594,116.781851 C388.993564,116.781851 388.498842,116.680495 388.124139,116.477782 C387.749149,116.275069 387.463743,115.99799 387.267921,115.646832 L385.484564,116.285119 C385.754465,116.954129 386.242584,117.474119 386.948634,117.845663 C387.654396,118.217208 388.564881,118.40298 389.679515,118.40298 C390.409109,118.40298 391.065772,118.318564 391.650366,118.149733 L391.650366,118.149733 Z M377.644228,112.308099 C377.303119,112.102228 377.044703,111.769446 376.869267,111.31004 C376.754129,111.019752 376.662822,110.67003 376.595634,110.261158 C376.527871,109.852574 376.494277,109.330861 376.494277,108.695733 C376.494277,108.114871 376.519545,107.626752 376.570079,107.231663 C376.620901,106.836287 376.720535,106.439475 376.869267,106.040941 C377.037812,105.581535 377.29795,105.252198 377.649396,105.052931 C378.000554,104.85395 378.395644,104.75403 378.83495,104.75403 C379.280861,104.75403 379.672505,104.85395 380.010168,105.052931 C380.348119,105.252198 380.601366,105.588426 380.770198,106.061327 C380.891941,106.42598 380.984683,106.799248 381.049,107.180842 C381.11303,107.562723 381.145188,108.067495 381.145188,108.695733 C381.145188,109.317366 381.114752,109.817257 381.053881,110.195406 C380.993297,110.573842 380.898545,110.945099 380.770198,111.31004 C380.594475,111.769446 380.334624,112.102228 379.990069,112.308099 C379.645515,112.514257 379.253584,112.61705 378.814564,112.61705 C378.375545,112.61705 377.985337,112.514257 377.644228,112.308099 L377.644228,112.308099 Z M380.450911,114.106673 C380.981238,113.951337 381.452416,113.667653 381.864446,113.255624 C382.276475,112.843594 382.597485,112.326762 382.827188,111.705129 C382.989416,111.239119 383.099099,110.749277 383.156525,110.235891 C383.21395,109.722505 383.242663,109.202515 383.242663,108.675347 C383.242663,108.148465 383.212228,107.633644 383.151356,107.130307 C383.090772,106.62697 382.989416,106.145743 382.847574,105.686337 C382.712337,105.287802 382.529723,104.923149 382.300307,104.592089 C382.070604,104.26103 381.790079,103.978782 381.459307,103.745921 C381.128248,103.512772 380.744931,103.332168 380.309069,103.203822 C379.873495,103.075475 379.381931,103.011158 378.83495,103.011158 C378.267584,103.011158 377.715149,103.090693 377.178218,103.249475 C376.641,103.408257 376.168099,103.696822 375.759515,104.115743 C375.350644,104.534663 375.041693,105.058099 374.832376,105.686337 C374.67704,106.145743 374.569079,106.625248 374.508208,107.125139 C374.447337,107.62503 374.416901,108.141861 374.416901,108.675347 C374.416901,109.202515 374.447337,109.722505 374.508208,110.235891 C374.569079,110.749277 374.67704,111.239119 374.832376,111.705129 C374.967614,112.097059 375.146495,112.455109 375.369307,112.779277 C375.592406,113.103446 375.86604,113.380525 376.190208,113.610228 C376.514376,113.839931 376.894535,114.018812 377.330109,114.147158 C377.76597,114.275505 378.267584,114.339822 378.83495,114.339822 C379.381931,114.339822 379.920584,114.26201 380.450911,114.106673 L380.450911,114.106673 Z M373.239099,114.106673 L373.239099,112.424673 C372.982406,112.451663 372.725713,112.465158 372.46902,112.465158 C372.151455,112.465158 371.89304,112.424673 371.693772,112.343703 C371.494505,112.262446 371.337446,112.14099 371.222594,111.978762 C371.107743,111.816535 371.030218,111.614109 370.989733,111.370911 C370.949248,111.127713 370.928861,110.84403 370.928861,110.519574 L370.928861,104.936356 L373.127693,104.936356 L373.127693,103.335614 L370.928861,103.335614 L370.928861,100.599564 L368.902307,100.599564 L368.902307,103.335614 L367.524089,103.335614 L367.524089,104.936356 L368.902307,104.936356 L368.902307,110.53996 C368.902307,111.087228 368.94796,111.585396 369.03898,112.034465 C369.130287,112.483822 369.295673,112.865416 369.535713,113.179535 C369.775178,113.493653 370.104515,113.736851 370.523436,113.909129 C370.942356,114.081406 371.479287,114.167545 372.134515,114.167545 C372.526446,114.167545 372.894545,114.147158 373.239099,114.106673 L373.239099,114.106673 Z M360.849495,114.005317 L363.230653,114.005317 L363.230653,111.431495 L360.849495,111.431495 L360.849495,114.005317 Z M351.14196,114.005317 L353.107644,106.80097 L355.083663,114.005317 L357.008861,114.005317 L360.038644,103.335614 L358.093059,103.335614 L356.11704,111.158149 L354.13097,103.335614 L352.195723,103.335614 L350.23004,111.158149 L348.25402,103.335614 L346.176931,103.335614 L349.186327,114.005317 L351.14196,114.005317 L351.14196,114.005317 Z M339.481663,112.308099 C339.140554,112.102228 338.882139,111.769446 338.706416,111.31004 C338.591564,111.019752 338.500257,110.67003 338.432782,110.261158 C338.365307,109.852574 338.331713,109.330861 338.331713,108.695733 C338.331713,108.114871 338.35698,107.626752 338.407515,107.231663 C338.458337,106.836287 338.55797,106.439475 338.706416,106.040941 C338.875248,105.581535 339.135386,105.252198 339.486832,105.052931 C339.83799,104.85395 340.233079,104.75403 340.672386,104.75403 C341.11801,104.75403 341.509941,104.85395 341.847604,105.052931 C342.185267,105.252198 342.438802,105.588426 342.607634,106.061327 C342.729376,106.42598 342.822119,106.799248 342.886436,107.180842 C342.950465,107.562723 342.982624,108.067495 342.982624,108.695733 C342.982624,109.317366 342.952188,109.817257 342.891317,110.195406 C342.830446,110.573842 342.73598,110.945099 342.607634,111.31004 C342.431911,111.769446 342.172059,112.102228 341.827505,112.308099 C341.48295,112.514257 341.09102,112.61705 340.652,112.61705 C340.212693,112.61705 339.822772,112.514257 339.481663,112.308099 L339.481663,112.308099 Z M342.288347,114.106673 C342.818673,113.951337 343.289851,113.667653 343.701881,113.255624 C344.113911,112.843594 344.434921,112.326762 344.664624,111.705129 C344.826851,111.239119 344.936535,110.749277 344.99396,110.235891 C345.051386,109.722505 345.080099,109.202515 345.080099,108.675347 C345.080099,108.148465 345.049663,107.633644 344.988792,107.130307 C344.927921,106.62697 344.826851,106.145743 344.68501,105.686337 C344.549772,105.287802 344.367158,104.923149 344.137743,104.592089 C343.90804,104.26103 343.627515,103.978782 343.296743,103.745921 C342.965683,103.512772 342.582366,103.332168 342.146505,103.203822 C341.710931,103.075475 341.219366,103.011158 340.672386,103.011158 C340.104733,103.011158 339.552584,103.090693 339.015653,103.249475 C338.478436,103.408257 338.005535,103.696822 337.59695,104.115743 C337.188079,104.534663 336.879129,105.058099 336.669812,105.686337 C336.514188,106.145743 336.406515,106.625248 336.345644,107.125139 C336.284772,107.62503 336.254337,108.141861 336.254337,108.675347 C336.254337,109.202515 336.284772,109.722505 336.345644,110.235891 C336.406515,110.749277 336.514188,111.239119 336.669812,111.705129 C336.804762,112.097059 336.983931,112.455109 337.206743,112.779277 C337.429842,113.103446 337.703475,113.380525 338.027644,113.610228 C338.351812,113.839931 338.73197,114.018812 339.167545,114.147158 C339.603406,114.275505 340.104733,114.339822 340.672386,114.339822 C341.219366,114.339822 341.75802,114.26201 342.288347,114.106673 L342.288347,114.106673 Z M331.793505,114.005317 L331.793505,109.090822 C331.793505,108.645198 331.850931,108.128366 331.965782,107.540614 C332.080634,106.952861 332.359149,106.437752 332.801614,105.995287 C333.244079,105.553109 333.840446,105.331733 334.590139,105.331733 C334.839941,105.331733 335.026,105.345228 335.147455,105.372218 L335.147455,103.315228 L334.884158,103.315228 C334.19505,103.315228 333.573416,103.514495 333.019545,103.91303 C332.465673,104.311851 332.026653,104.869168 331.702198,105.58498 L331.682099,103.335614 L329.756901,103.335614 L329.756901,114.005317 L331.793505,114.005317 L331.793505,114.005317 Z M324.921079,114.005317 L324.921079,109.090822 C324.921079,108.645198 324.978218,108.128366 325.093356,107.540614 C325.208208,106.952861 325.486723,106.437752 325.929188,105.995287 C326.371653,105.553109 326.967733,105.331733 327.717713,105.331733 C327.967515,105.331733 328.153287,105.345228 328.27503,105.372218 L328.27503,103.315228 L328.011446,103.315228 C327.322624,103.315228 326.70099,103.514495 326.147119,103.91303 C325.593248,104.311851 325.154228,104.869168 324.829772,105.58498 L324.809673,103.335614 L322.884475,103.335614 L322.884475,114.005317 L324.921079,114.005317 L324.921079,114.005317 Z M314.983267,112.308099 C314.642158,112.102228 314.383743,111.769446 314.208307,111.31004 C314.093168,111.019752 314.002149,110.67003 313.934673,110.261158 C313.866911,109.852574 313.833317,109.330861 313.833317,108.695733 C313.833317,108.114871 313.858584,107.626752 313.909406,107.231663 C313.959941,106.836287 314.059574,106.439475 314.208307,106.040941 C314.376851,105.581535 314.63699,105.252198 314.988436,105.052931 C315.339594,104.85395 315.734683,104.75403 316.17399,104.75403 C316.619901,104.75403 317.011545,104.85395 317.349495,105.052931 C317.687158,105.252198 317.940406,105.588426 318.109238,106.061327 C318.23098,106.42598 318.323723,106.799248 318.38804,107.180842 C318.452069,107.562723 318.484228,108.067495 318.484228,108.695733 C318.484228,109.317366 318.453792,109.817257 318.393208,110.195406 C318.332337,110.573842 318.237584,110.945099 318.109238,111.31004 C317.933515,111.769446 317.673663,112.102228 317.329109,112.308099 C316.984554,112.514257 316.592624,112.61705 316.153604,112.61705 C315.714584,112.61705 315.324376,112.514257 314.983267,112.308099 L314.983267,112.308099 Z M317.790238,114.106673 C318.320277,113.951337 318.791455,113.667653 319.203772,113.255624 C319.615515,112.843594 319.936525,112.326762 320.166228,111.705129 C320.328455,111.239119 320.438139,110.749277 320.495564,110.235891 C320.55299,109.722505 320.581703,109.202515 320.581703,108.675347 C320.581703,108.148465 320.551267,107.633644 320.490683,107.130307 C320.429812,106.62697 320.328455,106.145743 320.186614,105.686337 C320.051376,105.287802 319.86905,104.923149 319.639347,104.592089 C319.409644,104.26103 319.129406,103.978782 318.798347,103.745921 C318.467287,103.512772 318.08397,103.332168 317.648396,103.203822 C317.212535,103.075475 316.721257,103.011158 316.17399,103.011158 C315.606624,103.011158 315.054188,103.090693 314.517257,103.249475 C313.980327,103.408257 313.507426,103.696822 313.098554,104.115743 C312.68997,104.534663 312.380733,105.058099 312.171416,105.686337 C312.016079,106.145743 311.908119,106.625248 311.847248,107.125139 C311.786376,107.62503 311.755941,108.141861 311.755941,108.675347 C311.755941,109.202515 311.786376,109.722505 311.847248,110.235891 C311.908119,110.749277 312.016079,111.239119 312.171416,111.705129 C312.306653,112.097059 312.485535,112.455109 312.708634,112.779277 C312.931446,113.103446 313.205079,113.380525 313.529248,113.610228 C313.853416,113.839931 314.233574,114.018812 314.669149,114.147158 C315.10501,114.275505 315.606624,114.339822 316.17399,114.339822 C316.721257,114.339822 317.259911,114.26201 317.790238,114.106673 L317.790238,114.106673 Z M297.648733,114.005317 L297.648733,107.712891 C297.648733,107.34795 297.706158,106.995069 297.82101,106.65396 C297.935861,106.312851 298.094644,106.010505 298.297356,105.747208 C298.499782,105.483624 298.741257,105.272584 299.021782,105.113802 C299.30202,104.95502 299.604366,104.875772 299.928535,104.875772 C300.529782,104.875772 300.94698,105.027663 301.180129,105.331733 C301.41299,105.635515 301.529564,106.118752 301.529564,106.780584 L301.529564,114.005317 L303.556119,114.005317 L303.556119,107.712891 C303.556119,107.34795 303.628762,106.949703 303.77405,106.517287 C303.919337,106.084871 304.182634,105.703277 304.564515,105.372218 C304.946109,105.041158 305.380248,104.875772 305.866356,104.875772 C306.454109,104.875772 306.862693,105.027663 307.092683,105.331733 C307.322099,105.635515 307.43695,106.118752 307.43695,106.780584 L307.43695,114.005317 L309.473842,114.005317 L309.473842,106.243653 C309.473842,105.615416 309.372485,105.044604 309.169772,104.531218 C308.967059,104.017832 308.641168,103.636238 308.192099,103.386149 C307.742743,103.136347 307.207248,103.011158 306.585901,103.011158 C305.856307,103.011158 305.216297,103.158168 304.665871,103.451901 C304.115158,103.745921 303.664079,104.163119 303.312921,104.703495 C303.20496,104.37904 303.029238,104.080139 302.78604,103.806792 C302.542842,103.533158 302.240495,103.332168 301.879287,103.203822 C301.517792,103.075475 301.117535,103.011158 300.678515,103.011158 C299.955525,103.011158 299.335901,103.163337 298.819069,103.467119 C298.302238,103.771188 297.881881,104.176614 297.557426,104.683109 L297.537327,103.335614 L295.612129,103.335614 L295.612129,114.005317 L297.648733,114.005317 L297.648733,114.005317 Z M287.711208,112.308099 C287.369812,112.102228 287.111396,111.769446 286.93596,111.31004 C286.821109,111.019752 286.729802,110.67003 286.662327,110.261158 C286.594851,109.852574 286.56097,109.330861 286.56097,108.695733 C286.56097,108.114871 286.586238,107.626752 286.637059,107.231663 C286.687594,106.836287 286.787228,106.439475 286.93596,106.040941 C287.104792,105.581535 287.364931,105.252198 287.716089,105.052931 C288.067248,104.85395 288.462624,104.75403 288.901644,104.75403 C289.347554,104.75403 289.739198,104.85395 290.077149,105.052931 C290.414812,105.252198 290.668059,105.588426 290.837178,106.061327 C290.958634,106.42598 291.051376,106.799248 291.115693,107.180842 C291.179723,107.562723 291.211881,108.067495 291.211881,108.695733 C291.211881,109.317366 291.181733,109.817257 291.120861,110.195406 C291.05999,110.573842 290.965238,110.945099 290.837178,111.31004 C290.661455,111.769446 290.401317,112.102228 290.056762,112.308099 C289.712208,112.514257 289.320564,112.61705 288.881545,112.61705 C288.442238,112.61705 288.05203,112.514257 287.711208,112.308099 L287.711208,112.308099 Z M290.517891,114.106673 C291.048218,113.951337 291.519396,113.667653 291.931426,113.255624 C292.343455,112.843594 292.664178,112.326762 292.894168,111.705129 C293.056109,111.239119 293.165792,110.749277 293.223505,110.235891 C293.280644,109.722505 293.309356,109.202515 293.309356,108.675347 C293.309356,108.148465 293.279208,107.633644 293.218337,107.130307 C293.157465,106.62697 293.056109,106.145743 292.914267,105.686337 C292.77903,105.287802 292.596703,104.923149 292.367,104.592089 C292.137297,104.26103 291.857059,103.978782 291.526,103.745921 C291.194941,103.512772 290.811624,103.332168 290.37605,103.203822 C289.940188,103.075475 289.448911,103.011158 288.901644,103.011158 C288.334277,103.011158 287.782129,103.090693 287.244911,103.249475 C286.70798,103.408257 286.235079,103.696822 285.826495,104.115743 C285.417624,104.534663 285.108673,105.058099 284.899356,105.686337 C284.743733,106.145743 284.635772,106.625248 284.574901,107.125139 C284.514317,107.62503 284.483881,108.141861 284.483881,108.675347 C284.483881,109.202515 284.514317,109.722505 284.574901,110.235891 C284.635772,110.749277 284.743733,111.239119 284.899356,111.705129 C285.034307,112.097059 285.213475,112.455109 285.436287,112.779277 C285.659099,113.103446 285.932733,113.380525 286.256901,113.610228 C286.581356,113.839931 286.961228,114.018812 287.397089,114.147158 C287.832663,114.275505 288.334277,114.339822 288.901644,114.339822 C289.448911,114.339822 289.987564,114.26201 290.517891,114.106673 L290.517891,114.106673 Z M283.306079,114.106673 L283.306079,112.424673 C283.049099,112.451663 282.792406,112.465158 282.536,112.465158 C282.218149,112.465158 281.96002,112.424673 281.760752,112.343703 C281.561485,112.262446 281.404426,112.14099 281.289574,111.978762 C281.174723,111.816535 281.096911,111.614109 281.056426,111.370911 C281.015941,111.127713 280.995554,110.84403 280.995554,110.519574 L280.995554,104.936356 L283.194386,104.936356 L283.194386,103.335614 L280.995554,103.335614 L280.995554,100.599564 L278.969,100.599564 L278.969,103.335614 L277.591069,103.335614 L277.591069,104.936356 L278.969,104.936356 L278.969,110.53996 C278.969,111.087228 279.014653,111.585396 279.10596,112.034465 C279.19698,112.483822 279.362653,112.865416 279.602406,113.179535 C279.842158,113.493653 280.171495,113.736851 280.590416,113.909129 C281.00905,114.081406 281.546267,114.167545 282.201495,114.167545 C282.593139,114.167545 282.961525,114.147158 283.306079,114.106673 L283.306079,114.106673 Z M270.501287,114.005317 L272.882446,114.005317 L272.882446,111.431495 L270.501287,111.431495 L270.501287,114.005317 Z M262.200109,111.877406 C261.86905,111.580228 261.646238,111.154703 261.531386,110.600832 C261.477119,110.344139 261.433475,110.026574 261.399594,109.648139 C261.365713,109.26999 261.349059,108.888396 261.349059,108.503356 C261.349059,108.084436 261.364277,107.711168 261.394713,107.383554 C261.424861,107.055941 261.477119,106.74699 261.551772,106.456416 C261.612356,106.233604 261.703663,105.990406 261.825119,105.726822 C261.946861,105.463525 262.156178,105.23899 262.453356,105.052931 C262.750535,104.867158 263.122079,104.774416 263.56799,104.774416 C263.872059,104.774416 264.202832,104.843614 264.561168,104.98201 C264.918931,105.120693 265.238218,105.404376 265.518743,105.833347 C265.79898,106.262317 265.939099,106.780584 265.939099,107.388723 L265.939099,109.70901 C265.939099,110.107832 265.868178,110.507802 265.726337,110.909782 C265.584495,111.311762 265.324356,111.64799 264.946208,111.917891 C264.567772,112.188366 264.121861,112.323317 263.608475,112.323317 C263.000624,112.323317 262.531168,112.174871 262.200109,111.877406 L262.200109,111.877406 Z M265.731505,118.149733 C266.315525,117.980614 266.783545,117.713871 267.134703,117.349218 C267.384505,117.07903 267.585782,116.74797 267.737673,116.35604 C267.889564,115.964396 267.965653,115.373198 267.965653,114.58302 L267.965653,103.335614 L266.040455,103.335614 L265.99997,104.581752 C265.74299,104.102248 265.363119,103.720653 264.860069,103.436683 C264.356733,103.153 263.746871,103.011158 263.031059,103.011158 C262.274475,103.011158 261.639347,103.153 261.12596,103.436683 C260.612574,103.720653 260.210594,104.159673 259.920307,104.75403 C259.683713,105.220327 259.513158,105.753812 259.408644,106.355059 C259.303842,106.956307 259.251584,107.672406 259.251584,108.503356 C259.251584,109.239554 259.290347,109.879564 259.367871,110.423386 C259.445683,110.967208 259.558812,111.441832 259.707545,111.84697 C259.964238,112.54297 260.362485,113.08995 260.903149,113.488485 C261.443525,113.887307 262.139238,114.086287 262.990574,114.086287 C263.490178,114.086287 263.971693,114.010485 264.434545,113.858307 C264.897109,113.706416 265.398723,113.346644 265.939099,112.779277 L265.939099,114.420792 C265.939099,114.880198 265.908663,115.244851 265.848079,115.51504 C265.787208,115.785228 265.67896,116.00804 265.523624,116.183762 C265.314307,116.39997 265.050723,116.553871 264.733446,116.644891 C264.415594,116.736198 264.067881,116.781851 263.689733,116.781851 C263.07499,116.781851 262.57998,116.680495 262.205277,116.477782 C261.830287,116.275069 261.544881,115.99799 261.349059,115.646832 L259.565703,116.285119 C259.835604,116.954129 260.323723,117.474119 261.029772,117.845663 C261.735535,118.217208 262.64602,118.40298 263.760653,118.40298 C264.490248,118.40298 265.146911,118.318564 265.731505,118.149733 L265.731505,118.149733 Z M250.767792,114.005317 L250.767792,107.712891 C250.767792,107.34795 250.847327,106.946257 251.006109,106.50695 C251.164604,106.067931 251.43996,105.686337 251.831891,105.362168 C252.223535,105.037713 252.67605,104.875772 253.189723,104.875772 C253.797574,104.875772 254.24004,105.031109 254.517119,105.341782 C254.793911,105.652455 254.932594,106.132248 254.932594,106.780584 L254.932594,114.005317 L256.969198,114.005317 L256.969198,106.243653 C256.969198,105.615416 256.856069,105.04805 256.629812,104.541267 C256.403267,104.034772 256.055554,103.653178 255.586099,103.396198 C255.116356,103.139505 254.567653,103.011158 253.939416,103.011158 C253.182832,103.011158 252.541099,103.163337 252.014218,103.467119 C251.487337,103.771188 251.041426,104.176614 250.676772,104.683109 L250.656386,103.335614 L248.731188,103.335614 L248.731188,114.005317 L250.767792,114.005317 L250.767792,114.005317 Z M244.017109,101.136495 L246.053713,101.136495 L246.053713,99.0594059 L244.017109,99.0594059 L244.017109,101.136495 Z M244.017109,114.005604 L246.053713,114.005604 L246.053713,103.335614 L244.017109,103.335614 L244.017109,114.005604 Z M239.181287,114.005317 L239.181287,109.090822 C239.181287,108.645198 239.238426,108.128366 239.353564,107.540614 C239.468129,106.952861 239.746931,106.437752 240.189396,105.995287 C240.631861,105.553109 241.227941,105.331733 241.977921,105.331733 C242.227723,105.331733 242.413495,105.345228 242.535238,105.372218 L242.535238,103.315228 L242.271653,103.315228 C241.582832,103.315228 240.961198,103.514495 240.407327,103.91303 C239.853455,104.311851 239.414149,104.869168 239.08998,105.58498 L239.069881,103.335614 L237.144396,103.335614 L237.144396,114.005317 L239.181287,114.005317 L239.181287,114.005317 Z M228.726931,106.268921 C228.844941,105.860337 229.002,105.536168 229.198109,105.296129 C229.393931,105.056376 229.626792,104.887545 229.897267,104.789634 C230.167168,104.691723 230.464634,104.642624 230.788802,104.642624 C231.133356,104.642624 231.476188,104.710099 231.817297,104.845337 C232.158406,104.980574 232.43204,105.291248 232.638198,105.777644 C232.844069,106.263752 232.947149,106.939366 232.947149,107.804198 L228.529099,107.804198 C228.542594,107.189455 228.608634,106.677792 228.726931,106.268921 L228.726931,106.268921 Z M232.556941,114.106673 C233.080376,113.951337 233.522842,113.713307 233.884337,113.392297 C234.245832,113.071574 234.554782,112.667871 234.811475,112.181475 L233.200396,111.350525 C233.112535,111.499257 232.984188,111.671535 232.815356,111.867356 C232.646525,112.063465 232.40505,112.233733 232.090931,112.37902 C231.776812,112.524307 231.420485,112.59695 231.02195,112.59695 C230.650406,112.59695 230.310733,112.549574 230.003505,112.455109 C229.69599,112.360644 229.43097,112.198416 229.208158,111.968713 C228.985059,111.73901 228.813069,111.431495 228.691327,111.046455 C228.569871,110.661416 228.509,110.181911 228.509,109.607653 L228.509,109.313921 L234.943267,109.313921 L234.943267,108.199287 C234.943267,107.719782 234.919436,107.216446 234.872347,106.689564 C234.82497,106.162683 234.715287,105.671119 234.54301,105.215158 C234.370733,104.759198 234.115762,104.355495 233.778099,104.004337 C233.47403,103.700267 233.092436,103.458792 232.63303,103.279624 C232.173624,103.100743 231.60597,103.011158 230.930644,103.011158 C230.20105,103.011158 229.583149,103.104188 229.076366,103.28996 C228.569871,103.475733 228.144059,103.747644 227.799792,104.105693 C227.542812,104.362386 227.311673,104.695168 227.105515,105.103752 C226.899356,105.512337 226.742297,106.042663 226.634337,106.694446 C226.526376,107.346515 226.472109,108.08099 226.472109,108.898446 C226.472109,109.526683 226.50599,110.092614 226.573465,110.595663 C226.640941,111.099 226.759238,111.563287 226.928356,111.988812 C227.21204,112.725297 227.676327,113.30099 228.321505,113.716465 C228.966396,114.131941 229.81601,114.339822 230.869772,114.339822 C231.47102,114.339822 232.033505,114.26201 232.556941,114.106673 L232.556941,114.106673 Z M218.429347,106.268921 C218.547644,105.860337 218.704703,105.536168 218.900525,105.296129 C219.096347,105.056376 219.329495,104.887545 219.599683,104.789634 C219.869871,104.691723 220.167337,104.642624 220.491505,104.642624 C220.836059,104.642624 221.178604,104.710099 221.52,104.845337 C221.861109,104.980574 222.134455,105.291248 222.340614,105.777644 C222.546772,106.263752 222.649851,106.939366 222.649851,107.804198 L218.231802,107.804198 C218.245297,107.189455 218.31105,106.677792 218.429347,106.268921 L218.429347,106.268921 Z M222.259644,114.106673 C222.783079,113.951337 223.225545,113.713307 223.58704,113.392297 C223.948248,113.071574 224.257485,112.667871 224.514178,112.181475 L222.903099,111.350525 C222.815238,111.499257 222.686891,111.671535 222.518059,111.867356 C222.349228,112.063465 222.107752,112.233733 221.793634,112.37902 C221.479515,112.524307 221.122901,112.59695 220.724653,112.59695 C220.352822,112.59695 220.013436,112.549574 219.706208,112.455109 C219.398693,112.360644 219.133673,112.198416 218.910861,111.968713 C218.687762,111.73901 218.515485,111.431495 218.39403,111.046455 C218.272287,110.661416 218.211703,110.181911 218.211703,109.607653 L218.211703,109.313921 L224.64597,109.313921 L224.64597,108.199287 C224.64597,107.719782 224.622139,107.216446 224.57505,106.689564 C224.527673,106.162683 224.41799,105.671119 224.245713,105.215158 C224.073436,104.759198 223.818465,104.355495 223.480515,104.004337 C223.176733,103.700267 222.794851,103.458792 222.335733,103.279624 C221.87604,103.100743 221.308673,103.011158 220.633347,103.011158 C219.903752,103.011158 219.285564,103.104188 218.779069,103.28996 C218.272287,103.475733 217.846762,103.747644 217.502208,104.105693 C217.245515,104.362386 217.014089,104.695168 216.808218,105.103752 C216.602059,105.512337 216.445,106.042663 216.33704,106.694446 C216.228792,107.346515 216.174812,108.08099 216.174812,108.898446 C216.174812,109.526683 216.208693,110.092614 216.276168,110.595663 C216.343644,111.099 216.461941,111.563287 216.630772,111.988812 C216.914455,112.725297 217.37903,113.30099 218.024208,113.716465 C218.669099,114.131941 219.518713,114.339822 220.572475,114.339822 C221.173723,114.339822 221.735921,114.26201 222.259644,114.106673 L222.259644,114.106673 Z M207.691307,114.005317 L207.691307,107.712891 C207.691307,107.34795 207.770554,106.946257 207.929337,106.50695 C208.088119,106.067931 208.363475,105.686337 208.755119,105.362168 C209.14705,105.037713 209.599564,104.875772 210.11295,104.875772 C210.721089,104.875772 211.163267,105.031109 211.440347,105.341782 C211.717426,105.652455 211.855822,106.132248 211.855822,106.780584 L211.855822,114.005317 L213.892426,114.005317 L213.892426,106.243653 C213.892426,105.615416 213.779297,105.04805 213.55304,104.541267 C213.326782,104.034772 212.978782,103.653178 212.509327,103.396198 C212.039871,103.139505 211.491168,103.011158 210.862931,103.011158 C210.106347,103.011158 209.464614,103.163337 208.937733,103.467119 C208.410851,103.771188 207.964941,104.176614 207.6,104.683109 L207.579901,103.335614 L205.654703,103.335614 L205.654703,114.005317 L207.691307,114.005317 L207.691307,114.005317 Z M200.73303,101.136495 L202.769634,101.136495 L202.769634,99.0594059 L200.73303,99.0594059 L200.73303,101.136495 Z M200.73303,114.005604 L202.769634,114.005604 L202.769634,103.335614 L200.73303,103.335614 L200.73303,114.005604 Z M192.289723,111.877406 C191.958663,111.580228 191.735851,111.154703 191.621,110.600832 C191.56702,110.344139 191.523089,110.026574 191.489208,109.648139 C191.455327,109.26999 191.438673,108.888396 191.438673,108.503356 C191.438673,108.084436 191.453891,107.711168 191.484327,107.383554 C191.514762,107.055941 191.56702,106.74699 191.641386,106.456416 C191.70197,106.233604 191.793277,105.990406 191.91502,105.726822 C192.036475,105.463525 192.245792,105.23899 192.543257,105.052931 C192.840436,104.867158 193.21198,104.774416 193.657604,104.774416 C193.961673,104.774416 194.292733,104.843614 194.650782,104.98201 C195.008832,105.120693 195.327832,105.404376 195.608356,105.833347 C195.888594,106.262317 196.028713,106.780584 196.028713,107.388723 L196.028713,109.70901 C196.028713,110.107832 195.957792,110.507802 195.81595,110.909782 C195.674109,111.311762 195.41397,111.64799 195.035822,111.917891 C194.657386,112.188366 194.211475,112.323317 193.698376,112.323317 C193.090238,112.323317 192.620782,112.174871 192.289723,111.877406 L192.289723,111.877406 Z M195.821119,118.149733 C196.405426,117.980614 196.873158,117.713871 197.224604,117.349218 C197.474406,117.07903 197.675396,116.74797 197.827287,116.35604 C197.979465,115.964396 198.055267,115.373198 198.055267,114.58302 L198.055267,103.335614 L196.130069,103.335614 L196.089584,104.581752 C195.832891,104.102248 195.452733,103.720653 194.949683,103.436683 C194.446347,103.153 193.836772,103.011158 193.120673,103.011158 C192.364089,103.011158 191.72896,103.153 191.215861,103.436683 C190.702188,103.720653 190.300208,104.159673 190.009921,104.75403 C189.773327,105.220327 189.602772,105.753812 189.498257,106.355059 C189.393455,106.956307 189.341198,107.672406 189.341198,108.503356 C189.341198,109.239554 189.37996,109.879564 189.457772,110.423386 C189.535297,110.967208 189.648426,111.441832 189.797158,111.84697 C190.053851,112.54297 190.452386,113.08995 190.992762,113.488485 C191.533139,113.887307 192.229139,114.086287 193.080188,114.086287 C193.580079,114.086287 194.061307,114.010485 194.524158,113.858307 C194.986723,113.706416 195.488337,113.346644 196.028713,112.779277 L196.028713,114.420792 C196.028713,114.880198 195.998564,115.244851 195.937693,115.51504 C195.876822,115.785228 195.768574,116.00804 195.613238,116.183762 C195.403921,116.39997 195.140337,116.553871 194.823059,116.644891 C194.505495,116.736198 194.157495,116.781851 193.779347,116.781851 C193.164604,116.781851 192.669881,116.680495 192.294891,116.477782 C191.919901,116.275069 191.634495,115.99799 191.438673,115.646832 L189.655317,116.285119 C189.925505,116.954129 190.413624,117.474119 191.119386,117.845663 C191.825149,118.217208 192.735634,118.40298 193.850267,118.40298 C194.579861,118.40298 195.236812,118.318564 195.821119,118.149733 L195.821119,118.149733 Z M180.857693,114.005317 L180.857693,107.712891 C180.857693,107.34795 180.936941,106.946257 181.095723,106.50695 C181.254218,106.067931 181.529574,105.686337 181.921505,105.362168 C182.313149,105.037713 182.76595,104.875772 183.279337,104.875772 C183.887188,104.875772 184.329653,105.031109 184.606733,105.341782 C184.883525,105.652455 185.022208,106.132248 185.022208,106.780584 L185.022208,114.005317 L187.058812,114.005317 L187.058812,106.243653 C187.058812,105.615416 186.945683,105.04805 186.719426,104.541267 C186.492881,104.034772 186.145168,103.653178 185.675713,103.396198 C185.206257,103.139505 184.657267,103.011158 184.02903,103.011158 C183.272446,103.011158 182.630713,103.163337 182.103832,103.467119 C181.57695,103.771188 181.13104,104.176614 180.766386,104.683109 L180.746,103.335614 L178.820802,103.335614 L178.820802,114.005317 L180.857693,114.005317 L180.857693,114.005317 Z M170.40305,106.268921 C170.521347,105.860337 170.678406,105.536168 170.874228,105.296129 C171.07005,105.056376 171.303198,104.887545 171.573386,104.789634 C171.843574,104.691723 172.14104,104.642624 172.465208,104.642624 C172.809762,104.642624 173.152594,104.710099 173.493703,104.845337 C173.834812,104.980574 174.108158,105.291248 174.314317,105.777644 C174.520475,106.263752 174.623554,106.939366 174.623554,107.804198 L170.205505,107.804198 C170.219,107.189455 170.284752,106.677792 170.40305,106.268921 L170.40305,106.268921 Z M174.233347,114.106673 C174.756782,113.951337 175.199248,113.713307 175.560743,113.392297 C175.92195,113.071574 176.231188,112.667871 176.487881,112.181475 L174.876802,111.350525 C174.788941,111.499257 174.660594,111.671535 174.491762,111.867356 C174.322931,112.063465 174.081455,112.233733 173.767337,112.37902 C173.453218,112.524307 173.096604,112.59695 172.698356,112.59695 C172.326525,112.59695 171.987139,112.549574 171.679911,112.455109 C171.372396,112.360644 171.107376,112.198416 170.884564,111.968713 C170.661465,111.73901 170.489188,111.431495 170.367733,111.046455 C170.24599,110.661416 170.185406,110.181911 170.185406,109.607653 L170.185406,109.313921 L176.619673,109.313921 L176.619673,108.199287 C176.619673,107.719782 176.595842,107.216446 176.548752,106.689564 C176.501376,106.162683 176.391693,105.671119 176.219416,105.215158 C176.047139,104.759198 175.792168,104.355495 175.454218,104.004337 C175.150436,103.700267 174.768554,103.458792 174.309436,103.279624 C173.849743,103.100743 173.282376,103.011158 172.60705,103.011158 C171.877455,103.011158 171.259267,103.104188 170.752772,103.28996 C170.24599,103.475733 169.820465,103.747644 169.475911,104.105693 C169.219218,104.362386 168.987792,104.695168 168.781921,105.103752 C168.575762,105.512337 168.418703,106.042663 168.310743,106.694446 C168.202495,107.346515 168.148515,108.08099 168.148515,108.898446 C168.148515,109.526683 168.182396,110.092614 168.249871,110.595663 C168.317347,111.099 168.435644,111.563287 168.604475,111.988812 C168.888158,112.725297 169.352733,113.30099 169.997911,113.716465 C170.642802,114.131941 171.492416,114.339822 172.546178,114.339822 C173.147426,114.339822 173.709624,114.26201 174.233347,114.106673 L174.233347,114.106673 Z" id="Claim"></path>
                    </g>
                </g>
            </g>
        </g>
    </g>
</svg>