<svg enable-background="new 0 0 278.1 39.8" viewBox="0 0 278.1 39.8" xmlns="http://www.w3.org/2000/svg" xmlns:xlink="http://www.w3.org/1999/xlink"><clipPath id="a"><path d="m0 .2h278.1v39.8h-278.1z"/></clipPath><clipPath id="b"><path d="m0 19.1v2.1c.6 10.5 9.3 18.8 19.9 18.8 11 0 19.9-8.9 19.9-19.9s-8.9-19.9-19.9-19.9c-9.8 0-19.3 7.2-19.9 18.9"/></clipPath><clipPath id="c"><path d="m-5.8-6.3h289.1v50.6h-289.1z"/></clipPath><path clip-path="url(#a)" d="m0 20.1c0 11 8.9 19.9 19.9 19.9s19.9-8.9 19.9-19.9-8.9-19.9-19.9-19.9c-10.1 0-19.9 7.6-19.9 19.9" fill="#d92231"/><path clip-path="url(#b)" d="m34 20.4c1.9-1.9 3.6-4 5.3-6.1-.2-.8-.5-1.5-.8-2.3-2.8 3.7-5.8 7.2-9.2 10.4-3.5 1.4-7.1 2.5-10.8 3.5 6.9-5 12.8-11.2 16.8-19-.5-.6-1.1-1.2-1.7-1.7-4.5 9.2-11.4 16.3-19.7 21.8-1.2.3-2.3.5-3.5.7 7-7.6 12.3-16.6 14.6-27.1-.7-.2-1.5-.3-2.3-.4-.1.1-.1.1-.1.2-2.4 10.9-8 20.2-15.4 28-1.8.3-3.5.6-5.3.9.2.4.4.7.6 1.1 1.1-.2 2.2-.3 3.3-.5-.7.7-1.5 1.5-2.3 2.2.4.6.9 1.1 1.3 1.7 3.7-1.7 7.4-3.6 10.8-5.8 3.7-.9 7.4-1.9 11.1-3.1-2.9 2.5-6.1 4.7-9.6 6.5-3.2 1.7-6.6 3.1-10.1 4.3.4.3.8.6 1.2.9 3.9-1.3 7.6-2.9 11.3-4.8 4.4-2.4 8.4-5.3 12-8.7 3-1.2 5.9-2.5 8.8-4 0-.6-.1-1.1-.2-1.6-2.1 1-4.1 2-6.1 2.9m-26.5 10.2 1.5-1.5c.6-.1 1.3-.2 1.9-.4-1.1.7-2.3 1.4-3.4 1.9" fill="#fff"/><path d="m80.5 39.7h-8.8v-28.8l-6.4 28.8h-6.4l-6.3-28.7v28.7h-8.8v-39h14.5l4 24.4 3.6-24.4h14.6z"/><path clip-path="url(#c)" d="m101.9 17.6h-10.2v14.7h10.2v7.5h-7.4c-8.2 0-11.3-3-11.3-12.4v-5.1c0-9.4 3.1-12.1 11.3-12.1h7.4z"/><path clip-path="url(#c)" d="m103.7 39.7v-39h9.4v30h11.5v9z"/><path clip-path="url(#c)" d="m133.4 39.7c-4.8 0-7.7-2.9-7.7-8.8v-.8c0-6 2.7-8.8 7.7-8.8h6.4v-3.8h-11.9v-7.5h11.7c6 0 8.8 3.2 8.8 10.3v19.4zm6.4-11.6h-5.8v4.9h5.9v-4.9z"/><path clip-path="url(#c)" d="m164.8 39.7v-22.1h-6v22.2h-8.6v-29.7h14.5c6 0 8.8 3.2 8.8 10.3v19.4h-8.7z"/><path clip-path="url(#c)" d="m182.7 39.7c-4.8 0-7.7-2.9-7.7-8.8v-.8c0-6 2.7-8.8 7.7-8.8h6.4v-3.8h-11.9v-7.5h11.8c6 0 8.8 3.2 8.8 10.3v19.4zm6.4-11.6h-5.9v4.9h5.9z"/><path clip-path="url(#c)" d="m214.1 39.7v-22.1h-6v22.2h-8.6v-39h8.6v9.3h5.9c6 0 8.8 3.2 8.8 10.3v19.4h-8.7z"/><path clip-path="url(#c)" d="m232 39.7c-4.8 0-7.7-2.9-7.7-8.8v-.8c0-6 2.7-8.8 7.7-8.8h6.4v-3.8h-11.9v-7.5h11.7c6 0 8.8 3.2 8.8 10.3v19.4zm6.5-11.6h-5.9v4.9h5.9z"/><path clip-path="url(#c)" d="m263.4 39.7v-22.1h-6v22.2h-8.6v-29.7h14.5c6 0 8.8 3.2 8.8 10.3v19.4h-8.7z"/><path d="m277.4 39c-.5.5-1 .7-1.7.7s-1.2-.2-1.7-.7-.7-1-.7-1.7.2-1.2.7-1.7 1-.7 1.7-.7 1.2.2 1.7.7.7 1 .7 1.7c-.1.7-.3 1.2-.7 1.7m-3.2-3.1c-.4.4-.6.9-.6 1.4 0 .6.2 1.1.6 1.5s.9.6 1.4.6c.6 0 1-.2 1.4-.6s.6-.9.6-1.5-.2-1-.6-1.4-.9-.6-1.4-.6-1 .2-1.4.6m1.4.1c.3 0 .6 0 .7.1.3.1.4.3.4.7 0 .2-.1.4-.3.5-.1.1-.2.1-.4.1.2 0 .4.1.4.3.1.1.1.3.1.4v.2.2.1h-.4v-.1-.2c0-.3-.1-.5-.2-.6s-.3-.1-.5-.1h-.4v1h-.5v-2.6zm.5.4c-.1-.1-.3-.1-.6-.1h-.4v.9h.4c.2 0 .3 0 .4-.1.2-.1.3-.2.3-.4.1-.1 0-.2-.1-.3"/></svg>