<?xml version="1.0" encoding="UTF-8"?>
<svg id="Ebene_1" xmlns="http://www.w3.org/2000/svg" version="1.1" width="200" height="41.6" viewBox="0 0 200 41.6">
  <defs>
    <style>
      .st0 {
        fill: #fff;
      }
    </style>
  </defs>
  <path class="st0" d="M194.4.1c-.5-.3-1,.2-1.5.7-.4.4-1.1,1.3-1.4,1.6-.5-.4-2-1.6-3.7-2.2-.9-.3-2.1-.5-4.1,0-2,.5-4,1.8-5.2,3.4-1,1.3-1.8,3-2,4.3h0c-.1.7-.2,1.5-.2,2.2,0,6.6,5.3,11.9,11.9,11.9s11.9-5.3,11.9-11.9c0-4.2-2.1-8.1-5.6-10.1ZM178.8,3.9c1.2-1.5,3.1-2.7,5-3.2.8-.2,1.5-.3,2.1-.3s1.3.1,1.8.3c1.7.6,3.1,1.7,3.6,2.1-.3.4-1.2,1.5-2.2,2.6-.3.3-.5.6-.8.8,0,0,0,0,0,0,0,0-.2.2-.2.2,0,0,0,0,0,0,0,0-.2.2-.2.2-.1.1-.2.2-.3.3-1,1-2.3,2-3.4,2.8-.6.4-1.1.8-1.6,1-1.6.8-2.8,1-3.9.7-.2,0-.5-.2-.7-.3-.5-.3-.9-.9-1-1.7,0-.3,0-.5,0-.9,0-1.4.8-3.4,2-4.9Z"/>
  <path class="st0" d="M0,13.6v6.3h8.3v21.7h7.5v-21.7h8.3v-6.3H0Z"/>
  <path class="st0" d="M40.3,13.6h-7.2l-11.6,28h8l2.3-5.9h9.9l2.4,5.9h8.1l-11.9-28ZM39.2,29.4h-4.9l2.4-6.2,2.5,6.2Z"/>
  <path class="st0" d="M134.5,13.6h-7.2l-11.6,28h8l2.3-5.9h9.9l2.4,5.9h8.1l-11.9-28ZM133.3,29.4h-4.9l2.4-6.2,2.5,6.2Z"/>
  <path class="st0" d="M71.6,24.8l11.6-11.2h-10.2l-10,10.3v-10.3h-7.5v28h7.5v-8.4l3.4-3.3,7.3,11.7h9.6l-11.6-16.8Z"/>
  <path class="st0" d="M110,35c-1.4-2.1-2.5-3.5-3.3-4.4-.4-.4-.8-.7-1.3-1.1,1.6-.5,2.8-1.2,3.8-2.2,1.4-1.5,2.1-3.3,2.1-5.5s-.5-3.3-1.4-4.6c-.9-1.4-2.2-2.3-3.7-2.9-1.5-.5-3.7-.8-6.8-.8h-12.8v28h7.5v-10.9h.2c1.5,0,2.2.1,2.5.2.5.1.9.4,1.3.9.3.3,1.1,1.3,2.9,3.7l4.3,6.1h8.9l-4.4-6.5ZM103.7,22.2c0,.6-.1,1.1-.4,1.4-.3.4-.6.6-1.1.8-.3.1-1.4.3-4.8.3h-3.2v-4.8h3.5c2.9,0,3.8,0,4,0,.7.1,1.2.4,1.6.7.3.4.5.9.5,1.5Z"/>
  <path class="st0" d="M170.4,19.9v-6.3h-21v28h7.5v-11.1h11.7v-6.3h-11.7v-4.3h13.5Z"/>
</svg>