<?xml version="1.0" encoding="utf-8"?>
<!-- Generator: Adobe Illustrator 16.0.0, SVG Export Plug-In . SVG Version: 6.00 Build 0)  -->
<!DOCTYPE svg PUBLIC "-//W3C//DTD SVG 1.1//EN" "http://www.w3.org/Graphics/SVG/1.1/DTD/svg11.dtd">
<svg version="1.1" id="Layer_1" xmlns="http://www.w3.org/2000/svg" xmlns:xlink="http://www.w3.org/1999/xlink" x="0px" y="0px"
	 width="538.054px" height="140.333px" viewBox="0 0 538.054 140.333" enable-background="new 0 0 538.054 140.333"
	 xml:space="preserve">
<polygon fill="#FFFFFF" points="16.934,69.663 31.159,69.663 18.627,103.08 44.48,103.08 41.093,115.385 0,115.385 "/>
<polygon fill="#FFFFFF" points="116.846,69.889 160.536,69.889 157.036,80.388 125.764,80.388 123.167,87.839 151.391,87.839 
	147.666,97.435 119.781,97.435 117.184,104.773 149.472,104.886 145.408,115.385 100.137,115.385 "/>
<path fill="#FFFFFF" d="M196.888,84.113h13.321c0,0,0.903-3.161,1.016-4.967c0.226-7.564-5.645-9.371-9.483-9.371h-30.03
	c-6.322,0-8.016,5.306-8.016,5.306l-5.306,14.676c-1.129,3.274-0.113,7.903,5.193,7.903h24.272c5.419,0,3.048,7.112-1.354,7.112
	h-18.063c-4.403,0-2.145-4.29-2.145-4.29h-12.983l-2.371,6.773c-1.581,4.516,1.581,7.902,4.516,7.902h36.917
	c5.193,0,7.451-5.306,7.451-5.306l6.096-16.482c1.129-3.049-0.451-6.097-6.096-6.097h-24.836c-4.064,0-2.371-7.563,1.129-7.563
	c6.209,0,18.966,0,18.966,0C198.581,79.598,196.888,84.113,196.888,84.113z"/>
<polygon fill="#FFFFFF" points="312.153,69.663 325.474,69.663 308.314,115.385 294.654,115.385 301.654,97.322 275.462,97.322 
	268.801,115.385 255.141,115.385 272.076,69.663 285.736,69.663 279.526,86.371 305.831,86.371 "/>
<polygon fill="#FFFFFF" points="328.635,69.889 372.326,69.889 368.826,80.388 337.554,80.388 334.844,87.839 363.181,87.839 
	359.342,97.435 331.571,97.435 328.974,104.773 361.262,104.886 357.084,115.385 311.927,115.385 "/>
<path fill="#FFFFFF" d="M102.169,69.776H69.656c-7.79,0-11.854,1.919-14.451,8.806l-9.257,24.498c-1.919,5.08,0,12.192,7.677,12.192
	h29.917c7.903,0,14.563-5.193,16.031-9.145l10.273-26.869C111.878,73.84,107.927,69.776,102.169,69.776z M94.493,86.033
	l-5.419,13.659c-1.016,2.484-4.967,4.178-7.79,4.178H64.237c-4.177,0-3.951-2.71-3.274-4.629l5.08-13.772
	c1.468-4.178,4.403-5.081,6.661-5.081h17.272C95.508,80.501,94.831,85.017,94.493,86.033z"/>
<path fill="#FFFFFF" d="M229.401,69.776h28.223c5.758,0,9.709,3.951,7.677,9.483l-2.258,5.983h-12.418
	c0.79-2.031,0.338-4.741-4.177-4.741h-15.241c-2.258,0-5.306,1.468-6.661,5.08l-5.081,13.773c-0.677,1.919,0.226,4.854,3.726,4.854
	h15.015c3.387,0,6.096-2.032,7.112-4.516l1.129-2.71h11.967l-3.5,9.145c-2.032,5.532-4.968,9.145-15.467,9.145h-26.191
	c-10.499,0-10.725-4.403-7.677-12.192l9.257-24.498C217.435,71.809,221.611,69.776,229.401,69.776z"/>
<rect x="392.873" y="119.563" fill="#FFFFFF" width="145.182" height="18.627"/>
<path fill="#FFFFFF" d="M395.807,106.467l25.854-97.089c2.258-8.354,10.047-3.613,10.047-3.613l23.821,13.435
	c6.66,3.726,3.726,12.192,3.726,12.192l-19.87,75.979c-1.58,6.321-5.419,7.338-9.596,6.999h-26.981
	C395.356,114.369,394.566,111.434,395.807,106.467z"/>
<path fill="#FFFFFF" d="M534.216,106.467L508.363,9.377c-2.258-8.354-9.935-3.613-9.935-3.613l-23.82,13.435
	c-6.661,3.726-3.726,12.192-3.726,12.192l19.869,76.091c1.58,6.322,5.419,7.338,9.596,7h26.982
	C534.667,114.369,535.458,111.434,534.216,106.467z"/>
<path fill="#FFFFFF" d="M527.555,23.715c5.419,0,9.821-4.403,9.821-9.935c0-5.419-4.402-9.822-9.821-9.822s-9.935,4.403-9.935,9.822
	C517.621,19.312,522.023,23.715,527.555,23.715z M527.555,21.796c-4.516,0-8.016-3.613-8.016-8.016s3.612-8.016,8.016-8.016
	c4.402,0,8.016,3.613,8.016,8.016C535.571,18.296,531.958,21.796,527.555,21.796z M529.813,14.684
	c1.919-0.113,2.936-0.903,2.936-2.936c0-1.129-0.339-2.145-1.242-2.709c-0.79-0.452-2.032-0.452-2.936-0.452h-5.192v10.612h2.145
	v-4.516h2.145l2.371,4.516h2.371L529.813,14.684z M525.523,13.103v-3.048h2.597c1.016,0,2.597,0,2.597,1.468
	c0,1.354-0.791,1.581-2.032,1.581H525.523z"/>
</svg>
