<svg id="a" data-name="Ebene 1" xmlns="http://www.w3.org/2000/svg" width="180" height="29.55" viewBox="0 0 180 29.55" fill="white">
  <path d="M0,0v5.54h9.56v23.95h7.93V5.54h162.51V0H0Z"></path>
  <path d="M23.55,9.3h7.32v20.25h-7.32V9.3ZM152.28,9.23v20.25h7.32v-10.54l11.54,10.61h8.86V9.3h-7.32v12.73l-13.08-12.8h-7.32ZM37.23,9.3v20.25h27.96v-4.78h-20.65v-2.95h12.33v-4.78h-12.33v-2.95h20.65v-4.78h-27.96ZM119.7,9.3v20.25h27.97v-4.78h-20.65v-2.95h12.33v-4.78h-12.33v-2.95h20.65v-4.78h-27.97ZM96.59,14.08v-4.78h-27.96v4.78h6.67v15.47h7.31v-15.47h13.98Z"></path>
  <path d="M99.04,9.29v4.78h6.67v8.43c0,2.26-1.75,2.55-1.75,2.55h-6.26s-1.81-.05-1.81-4.17h-7.31c0,8.59,6.53,8.66,6.53,8.66h11.49c6.3,0,6.42-6.77,6.43-7.04v-13.22h-13.99Z"></path>
</svg>