<svg width="60" height="60" viewBox="0 0 60 60" fill="none" xmlns="http://www.w3.org/2000/svg">
<path d="M30.0143 59.4638C46.3257 59.4638 59.5487 46.2345 59.5487 29.9153C59.5487 13.5962 46.3257 0.366882 30.0143 0.366882C13.703 0.366882 0.47998 13.5962 0.47998 29.9153C0.47998 46.2345 13.703 59.4638 30.0143 59.4638Z" fill="#319B42"/>
<path d="M48.8664 21.7027H40.1458L37.4365 30.2822L34.7272 21.7027H26.2888L23.5795 30.2822L20.8843 21.7027H14.1675V38.1138H19.2051V31.4534L21.6322 38.1138H25.5551L27.9821 31.4534V38.1138H33.0198V31.4534L35.4469 38.1138H39.3697L41.7968 31.4534V38.1138H48.5983C47.0884 41.5428 44.6472 44.4779 41.571 46.6087C32.3566 52.9727 19.7131 50.6444 13.3631 41.4299C6.99908 32.2154 9.32739 19.572 18.5419 13.222C27.7281 6.85795 40.3575 9.17216 46.7216 18.4008H51.5616V13.5607C42.5447 1.6651 25.5692 -0.663215 13.6736 8.36783C1.778 17.3989 -0.550311 34.3603 8.48073 46.2559C17.5118 58.1515 34.4732 60.4798 46.3688 51.4487C53.0997 46.3406 57.0649 38.3678 57.0649 29.9012C57.079 25.3857 53.3961 21.7027 48.8664 21.7027ZM49.2192 32.7093H46.7498V27.0649H49.2192C50.7714 27.0649 52.0414 28.3349 52.0414 29.8871C52.0414 31.4534 50.7714 32.7093 49.2192 32.7093Z" fill="#FEDD00"/>
<path d="M53.0009 18.4008V17.1872H52.5493V17.0179H53.6359V17.1872H53.1843V18.4008H53.0009Z" fill="#FEDD00"/>
<path d="M53.8193 18.4008V17.0179H54.0874L54.412 17.9915C54.4402 18.0762 54.4684 18.1468 54.4826 18.1891C54.4967 18.1326 54.5249 18.0621 54.5531 17.9633L54.8777 17.0038H55.1176V18.3866H54.9482V17.2295L54.5531 18.3866H54.3838L53.9887 17.2154V18.3866H53.8193V18.4008Z" fill="#FEDD00"/>
</svg>
