<svg width="308" height="56" viewBox="0 0 308 56" fill="none" xmlns="http://www.w3.org/2000/svg">
    <path
        d="M47.4772 47.7999C50.2435 45.0148 52.3961 41.6716 53.7923 37.9924C55.1884 34.3114 55.7984 30.3764 55.5796 26.4434L40.9212 41.2012L26.2627 55.9591C30.1693 56.1775 34.0777 55.5652 37.734 54.1596C41.3902 52.754 44.7091 50.5868 47.4754 47.8018L47.4772 47.7999Z"
        fill="#101010" />
    <path
        d="M33.1381 33.3635L35.9693 25.0904C36.6572 23.08 37.79 21.2544 39.2844 19.7517L49.0481 9.92188C51.6938 13.0709 53.6147 16.7707 54.6752 20.756L47.4776 28.0024C45.9851 29.5051 44.1718 30.6475 42.1749 31.34L33.9576 34.1904L31.1264 42.4635C30.4385 44.4739 29.3057 46.2995 27.8113 47.8021L20.6137 55.0485C16.6571 53.9808 12.9822 52.0469 9.85254 49.3832L19.6162 39.5533C21.1087 38.0507 22.9239 36.9083 24.9189 36.2157L33.1362 33.3653L33.1381 33.3635Z"
        fill="#101010" />
    <path
        d="M22.4854 22.6373L30.7027 19.7869C32.6996 19.0944 34.5129 17.9538 36.0054 16.4493L45.7691 6.61943C42.6412 3.9557 38.9664 2.02183 35.0079 0.954102L27.8103 8.2005C26.3178 9.70317 25.1831 11.5288 24.4952 13.5392L21.664 21.8122L13.4467 24.6626C11.4498 25.3552 9.63652 26.4957 8.14398 28.0002L0.948242 35.2466C2.00878 39.2301 3.92962 42.9298 6.57541 46.0808L16.3391 36.2509C17.8316 34.7482 18.9663 32.9208 19.6542 30.9122L22.4854 22.6392V22.6373Z"
        fill="#101010" />
    <path
        d="M8.14525 8.20048C10.9116 5.41542 14.2322 3.24822 17.8866 1.84262C21.5429 0.437018 25.4513 -0.175248 29.3598 0.0431517L14.7013 14.801L0.042861 29.5589C-0.174068 25.6258 0.434075 21.6909 1.83021 18.0098C3.22634 14.3288 5.37894 10.9874 8.14525 8.20235V8.20048Z"
        fill="#101010" />
    <path
        d="M273.423 46.6705H281.208V29.5961L297.144 46.6332H308L289.03 26.7625L306.611 9.28308H295.281L281.208 24.4068V9.31855H273.423V46.6705Z"
        fill="#101010" />
    <path d="M266.991 9.31848H259.206V46.6705H266.991V9.31848Z" fill="#101010" />
    <path d="M219.951 9.31848L232.195 46.6686H244.147L256.391 9.31848H248.131L238.19 40.3033L228.211 9.31848H219.951Z"
        fill="#101010" />
    <path
        d="M203.978 9.31824H187.602V46.6702H203.904C215.052 46.6702 220.095 39.9353 220.095 28.123C220.095 16.3108 215.125 9.31824 203.976 9.31824H203.978ZM203.978 40.3404H195.388V15.6108H203.978C209.972 15.6108 212.238 19.7697 212.238 28.123C212.238 36.4764 209.935 40.3404 203.978 40.3404Z"
        fill="#101010" />
    <path
        d="M148.494 46.6702H156.096V15.243L170.459 46.6684H181.352V9.31824H173.75V37.5796L160.994 9.31824H148.494V46.6702Z"
        fill="#101010" />
    <path
        d="M74.0765 33.2379C73.7836 43.6147 80.399 47.2958 91.3289 47.2958C100.577 47.2958 107.63 43.9096 107.63 34.8582C107.63 26.7624 101.599 25.2542 94.911 24.5915L88.112 23.9662C84.0182 23.5984 82.5572 22.3478 82.5572 19.2566C82.5572 15.5774 85.1158 13.847 90.489 13.847C95.8621 13.847 99.079 15.723 99.1513 21.0598H107.302C107.302 12.4115 103.282 8.28992 90.3425 8.28992C79.9614 8.28992 74.1878 12.2267 74.1878 19.8446C74.1878 26.9472 78.9751 29.4486 85.5552 30.1112L93.0476 30.8467C98.3837 31.3992 99.4813 32.8702 99.4813 35.5936C99.4813 40.1203 96.9227 41.4811 91.3307 41.4811C83.7642 41.4811 82.559 37.6918 82.6313 33.2379H74.0784H74.0765Z"
        fill="#101010" />
    <path
        d="M133.288 9.31824H120.716L108.032 46.6684H116.036L118.96 38.0574H135.115L138.002 46.6684H146.043L133.287 9.31824H133.288ZM121.191 31.5446L127.075 14.3228L132.886 31.5446H121.191Z"
        fill="#101010" />
</svg>
